<svg width="15" height="32" viewBox="0 0 15 32" fill="none" xmlns="http://www.w3.org/2000/svg">
<g clip-path="url(#clip0)">
<path d="M9.59083 23.8969C9.59083 26.463 9.58651 29.029 9.59729 31.5929C9.59729 31.8312 9.52401 31.8958 9.3128 31.9114C8.02181 32.0116 6.73082 32.0116 5.43767 31.9849C4.78248 31.9715 4.12729 31.9715 3.47209 31.9871C3.24364 31.9938 3.1876 31.927 3.1876 31.6909C3.19407 26.6478 3.19191 21.6071 3.19191 16.564C3.19191 16.2054 3.19191 16.2099 2.86001 16.192C1.96558 16.143 1.07116 16.0874 0.17673 16.045C0.0409496 16.0384 0.00215524 15.9871 0.00215524 15.8535C0.00431048 14.1249 0.00646572 12.3986 0 10.6701C0 10.4808 0.0905201 10.4808 0.224145 10.4808C1.10348 10.483 1.98282 10.4741 2.86216 10.4875C3.09277 10.4919 3.17252 10.4362 3.16389 10.1845C3.11217 8.67207 3.14881 7.15738 3.19838 5.64492C3.23933 4.39531 3.51089 3.21029 4.27815 2.20124C5.0799 1.14764 6.17908 0.619724 7.40757 0.323469C8.82356 -0.0173357 10.2611 -0.00619833 11.7008 0.00493907C12.4659 0.0116215 13.2332 0.0762185 13.9983 0.0294414C14.1707 0.018304 14.2138 0.0851284 14.2138 0.256644C14.2074 2.06536 14.2074 3.87407 14.2138 5.68279C14.2138 5.87881 14.147 5.9189 13.9746 5.91668C12.9056 5.90999 11.8387 5.89663 10.7697 5.9189C9.84514 5.93672 9.621 6.14388 9.58005 7.10392C9.53479 8.16198 9.56281 9.22226 9.55203 10.2825C9.54988 10.4607 9.65117 10.4585 9.76971 10.4585C10.4853 10.4585 11.2008 10.4585 11.9163 10.4585C12.6405 10.4585 13.3647 10.463 14.0888 10.4563C14.2526 10.4541 14.3108 10.4941 14.2936 10.679C14.1405 12.3452 13.9897 14.0113 13.8539 15.6775C13.8345 15.9069 13.7591 15.9448 13.5586 15.9426C12.3258 15.9337 11.093 15.9448 9.86023 15.9314C9.621 15.9292 9.5822 16.0049 9.5822 16.2299C9.59298 18.7826 9.59083 21.3398 9.59083 23.8969Z" fill="#33475B"/>
</g>
<defs>
<clipPath id="clip0">
<rect width="14.2979" height="32" fill="white"/>
</clipPath>
</defs>
</svg>
