<svg width="65" height="66" viewBox="0 0 65 66" fill="none" xmlns="http://www.w3.org/2000/svg">
<path d="M8.99409 31.4604C10.1157 32.0138 11.2881 32.4288 12.4859 32.7055C11.2924 32.9822 10.1199 33.4016 8.99833 33.9549C7.4069 34.7461 5.91282 35.8139 4.58805 37.1671C2.07817 39.7308 0.558692 42.9214 0.0253951 46.2503C2.70034 48.2087 5.97631 49.363 9.51469 49.363C11.3939 49.363 13.2012 49.0388 14.8815 48.4379C15.0254 48.386 15.1693 48.3341 15.3132 48.2779C12.2955 44.4605 12.5198 38.8532 15.9947 35.3038C16.765 34.517 17.6411 33.8901 18.568 33.4275C19.0844 33.1724 19.6219 32.9649 20.1679 32.8093C20.3118 32.7704 20.46 32.7315 20.6039 32.6969C20.4557 32.6623 20.3118 32.6277 20.1679 32.5845C19.6219 32.4288 19.0844 32.2256 18.568 31.9706C17.6327 31.508 16.7565 30.8811 15.9777 30.0899C12.5071 26.5449 12.2785 20.9462 15.2878 17.1288C15.1439 17.0726 15 17.0207 14.8561 16.9688C13.1843 16.3766 11.3855 16.0566 9.51469 16.0566C5.96361 16.0566 2.67918 17.2153 0 19.1867C0.533297 22.5026 2.05277 25.6845 4.55842 28.2439C5.89166 29.5928 7.3942 30.6693 8.99409 31.4604ZM15.0424 34.3224C11.5632 37.8761 10.8945 43.2543 13.1885 47.5127C11.9949 47.8196 10.7675 47.9753 9.51893 47.9753C6.66198 47.9753 3.91508 47.1625 1.52794 45.6104C2.14165 42.7787 3.52145 40.215 5.54883 38.1399C6.73393 36.9293 8.0968 35.935 9.59088 35.1957C10.6067 34.6942 11.6817 34.3051 12.7864 34.0501L16.2613 33.2416C15.8338 33.5702 15.4233 33.929 15.0424 34.3224ZM9.51893 17.4358C10.7548 17.4358 11.978 17.5871 13.1631 17.894C10.8776 22.1481 11.5505 27.5219 15.0254 31.067C15.4148 31.4647 15.8296 31.8279 16.2656 32.1565L12.7864 31.3523C11.6775 31.0973 10.6025 30.7125 9.58665 30.211C8.07987 29.4674 6.71277 28.473 5.5192 27.2539C3.50029 25.1917 2.12049 22.6323 1.50254 19.8136C3.89815 18.2529 6.64928 17.4358 9.51893 17.4358Z" fill="white"/>
<path d="M48.0095 30.0726C47.2391 30.8594 46.3672 31.4863 45.4361 31.9445C44.9155 32.2039 44.3822 32.4071 43.832 32.5628C43.688 32.606 43.5441 32.6406 43.396 32.6752C43.5441 32.7098 43.688 32.7443 43.832 32.7876C44.3779 32.9432 44.9155 33.1464 45.4319 33.4015C46.3672 33.8641 47.2434 34.4909 48.0222 35.2821C51.4929 38.8271 51.7256 44.4257 48.7163 48.2431C48.8602 48.2993 49.0041 48.3512 49.148 48.4031C50.8199 48.9954 52.6187 49.3153 54.4895 49.3153C58.0406 49.3153 61.3251 48.1567 64.0043 46.1896C63.471 42.8737 61.9515 39.6918 59.4458 37.1324C58.1168 35.7749 56.6142 34.6984 55.0101 33.9073C53.8885 33.3539 52.7161 32.9389 51.5183 32.6622C52.7118 32.3855 53.8842 31.9662 55.0059 31.4128C56.5973 30.6216 58.0914 29.5538 59.4162 28.2006C61.9261 25.6369 63.4456 22.4421 63.9789 19.1175C61.3039 17.1591 58.0279 16.0048 54.4895 16.0048C52.6103 16.0048 50.803 16.329 49.1226 16.9299C48.9787 16.9818 48.8348 17.0337 48.6909 17.0899C51.7087 20.916 51.4844 26.5232 48.0095 30.0726ZM54.4218 35.161C55.9243 35.9046 57.2914 36.899 58.485 38.1181C60.5082 40.1846 61.8838 42.7397 62.5017 45.5627C60.1061 47.1191 57.3549 47.9405 54.4895 47.9405C53.2536 47.9405 52.0304 47.7892 50.8453 47.4823C53.1266 43.2282 52.4536 37.8544 48.983 34.3093C48.5936 33.9116 48.183 33.5485 47.7471 33.2199L51.222 34.0197C52.3309 34.2748 53.406 34.6595 54.4218 35.161ZM54.4895 17.3968C57.3465 17.3968 60.0934 18.2096 62.4806 19.7617C61.8668 22.5934 60.487 25.1614 58.4596 27.2322C57.2957 28.4211 55.9709 29.3938 54.5107 30.1288L54.4133 30.1763C53.3975 30.6778 52.3224 31.0669 51.2177 31.322L47.7428 32.1304C48.1745 31.8062 48.5809 31.443 48.966 31.054C52.4452 27.5002 53.1139 22.1178 50.8199 17.8638C52.0135 17.5525 53.2451 17.3968 54.4895 17.3968Z" fill="white"/>
<path d="M16.6127 50.1974C16.0328 51.9051 15.7196 53.7424 15.7196 55.6533C15.7196 59.2805 16.8539 62.6353 18.784 65.3719C22.0303 64.8272 25.1454 63.2752 27.6511 60.7158C28.9801 59.3583 30.034 57.8236 30.8086 56.1851C31.3503 55.0394 31.7566 53.8419 32.0275 52.6184C32.2984 53.8375 32.709 55.0351 33.2507 56.1807C34.0253 57.8063 35.0707 59.3324 36.3955 60.6856C38.9054 63.2492 42.0332 64.8013 45.288 65.346C47.2054 62.6137 48.3354 59.2675 48.3354 55.6533C48.3354 53.7338 48.018 51.8878 47.4297 50.1714C47.3789 50.0244 47.3281 49.8775 47.2731 49.7305C45.5335 51.1658 43.4173 51.8834 41.301 51.8834C38.8673 51.8834 36.4294 50.9323 34.5713 49.0344C33.801 48.2476 33.1872 47.3527 32.7344 46.4059C32.4846 45.8785 32.2815 45.3294 32.1291 44.7717C32.091 44.6247 32.0529 44.4734 32.0191 44.3264C31.9852 44.4777 31.9513 44.6247 31.909 44.7717C31.7566 45.3294 31.5577 45.8785 31.308 46.4059C30.8551 47.3613 30.2414 48.2562 29.4668 49.0517C27.6088 50.9496 25.1708 51.9007 22.7371 51.9007C20.6251 51.9007 18.5131 51.1874 16.7777 49.7607C16.7185 49.9034 16.6635 50.0504 16.6127 50.1974ZM33.6063 50.0115C35.659 52.1082 38.389 53.2626 41.2968 53.2626C43.1294 53.2626 44.9283 52.787 46.5197 51.8964C46.8202 53.1156 46.9726 54.3736 46.9726 55.649C46.9726 58.5672 46.1769 61.373 44.6574 63.8113C41.8851 63.1844 39.3752 61.775 37.3436 59.7042C36.1585 58.4937 35.185 57.1016 34.4612 55.5755C33.9703 54.5379 33.5893 53.4398 33.3396 52.3114L32.5481 48.7621C32.8698 49.203 33.2211 49.6224 33.6063 50.0115ZM17.5227 51.9267C19.1099 52.8086 20.9044 53.2842 22.7287 53.2842C25.6322 53.2842 28.3622 52.1299 30.4149 50.0331C30.8043 49.6354 31.1599 49.2117 31.4815 48.7664L30.6943 52.3201C30.4446 53.4528 30.0679 54.5509 29.5769 55.5885C28.8489 57.1275 27.8754 58.5239 26.6818 59.7431C24.6587 61.8096 22.1573 63.2146 19.3934 63.8458C17.8697 61.4032 17.0655 58.5888 17.0655 55.662C17.074 54.3866 17.2264 53.1372 17.5227 51.9267Z" fill="white"/>
<path d="M16.583 15.2005C16.6338 15.3475 16.6846 15.4945 16.7396 15.6414C18.4792 14.2061 20.5954 13.4885 22.7117 13.4885C25.1454 13.4885 27.5833 14.4396 29.4414 16.3375C30.2117 17.1243 30.8255 18.0149 31.2741 18.966C31.5281 19.4978 31.727 20.0425 31.8794 20.6045C31.9217 20.7515 31.9555 20.8985 31.9894 21.0498C32.0233 20.9028 32.0571 20.7515 32.0994 20.6045C32.2518 20.0468 32.4507 19.4978 32.7005 18.9703C33.1533 18.0149 33.7671 17.12 34.5416 16.3245C36.3997 14.4266 38.8376 13.4755 41.2713 13.4755C43.3834 13.4755 45.4954 14.1888 47.2307 15.6155C47.2858 15.4685 47.3365 15.3215 47.3873 15.1745C47.9672 13.4669 48.2804 11.6295 48.2804 9.71862C48.2804 6.09143 47.1461 2.7366 45.2203 0C41.9824 0.544727 38.8673 2.09677 36.3616 4.65612C35.0326 6.01361 33.9787 7.54836 33.2041 9.18686C32.6624 10.3325 32.2561 11.5301 31.9852 12.7535C31.7143 11.5344 31.3037 10.3368 30.762 9.19119C29.9874 7.56565 28.942 6.03955 27.6172 4.68638C25.1073 2.11838 21.9837 0.566343 18.7247 0.0216161C16.8073 2.7539 15.6772 6.10008 15.6772 9.7143C15.6815 11.6381 15.9989 13.4842 16.583 15.2005ZM33.31 13.0518C33.5597 11.9235 33.9364 10.821 34.4273 9.78347C35.1553 8.24872 36.1288 6.85232 37.3224 5.63317C39.3413 3.57099 41.847 2.16161 44.6066 1.53042C46.1303 3.97737 46.9345 6.78747 46.9345 9.7143C46.9345 10.981 46.7821 12.2304 46.4858 13.4409C44.8986 12.559 43.104 12.0834 41.2798 12.0834C38.3763 12.0834 35.6463 13.2377 33.5893 15.3388C33.1999 15.7366 32.8444 16.1559 32.5227 16.6012L33.31 13.0518ZM19.3468 1.55204C22.1192 2.17891 24.6333 3.58828 26.6607 5.65911C27.8246 6.848 28.7769 8.20117 29.4964 9.69268L29.543 9.78779C30.034 10.8254 30.4149 11.9235 30.6646 13.0518L31.4561 16.6012C31.1387 16.1602 30.7831 15.7452 30.4022 15.3518C28.3494 13.2593 25.6195 12.105 22.7159 12.105C20.8833 12.105 19.0844 12.5806 17.493 13.4712C17.1925 12.252 17.0401 10.994 17.0401 9.71862C17.0359 6.79612 17.8316 3.99466 19.3468 1.55204Z" fill="white"/>
<path d="M18.767 45.0527C19.5754 44.7371 20.3458 44.3436 21.0653 43.8767C20.6124 44.616 20.2273 45.4028 19.9183 46.2286C21.2939 47.3613 22.9699 47.9276 24.646 47.9276C26.5761 47.9276 28.5103 47.1754 29.9833 45.6666C30.6012 45.0354 31.0837 44.3263 31.4435 43.5698C31.6424 43.1504 31.8032 42.7138 31.9218 42.2728C31.5324 40.7164 30.8594 39.2249 29.9028 37.8717C28.1675 38.1614 26.5464 38.8056 25.1158 39.7307C26.0174 38.2695 26.6438 36.6137 26.9274 34.8411C25.6026 33.8684 24.1381 33.1853 22.6144 32.7876C22.1785 32.913 21.7552 33.0729 21.3446 33.2761C20.6082 33.6436 19.914 34.1365 19.3046 34.7633C16.5534 37.5734 16.3757 42.0221 18.767 45.0527ZM25.8438 40.898C26.9147 40.2063 28.0659 39.7091 29.2806 39.4108C29.8139 40.2971 30.2245 41.2482 30.5123 42.2512C30.4319 42.4933 30.3346 42.7354 30.2245 42.9688C29.924 43.6044 29.5219 44.1837 29.0267 44.6895C27.8585 45.8827 26.3009 46.5442 24.646 46.5442C23.5794 46.5442 22.5255 46.2588 21.6071 45.7314C21.7891 45.351 21.9922 44.9792 22.2123 44.6203L23.6175 42.342L25.8438 40.898ZM21.9414 34.5169C22.17 34.4045 22.4028 34.3051 22.644 34.2229C23.626 34.5126 24.5571 34.9319 25.4248 35.4767C25.1328 36.7218 24.646 37.8977 23.9731 38.9915L22.5678 41.2698L20.3415 42.7051C19.9902 42.9343 19.6262 43.1418 19.2495 43.3277C17.8909 40.8937 18.2634 37.7853 20.2653 35.7361C20.7606 35.2346 21.3235 34.8238 21.9414 34.5169Z" fill="white"/>
<path d="M39.3582 17.4487C37.4282 17.4487 35.4939 18.201 34.021 19.7098C33.4073 20.3367 32.9206 21.05 32.5608 21.8066C32.3619 22.226 32.2053 22.6583 32.0825 23.1036C32.4761 24.6556 33.1491 26.1515 34.1014 27.5047C35.8368 27.215 37.4578 26.5709 38.8884 25.6457C38.4398 26.3763 38.0546 27.1588 37.7499 27.9716C37.4451 28.793 37.2166 29.649 37.0769 30.5353C38.4017 31.508 39.8661 32.1911 41.3856 32.5889C41.8216 32.4635 42.2448 32.3035 42.6554 32.1003C43.3918 31.7372 44.086 31.24 44.6954 30.6131C47.4508 27.7987 47.6328 23.35 45.2372 20.3237C44.4288 20.635 43.6627 21.0327 42.9389 21.4996C43.3961 20.7604 43.777 19.9779 44.086 19.1478C42.7104 18.0151 41.0343 17.4487 39.3582 17.4487ZM38.1647 24.4741C37.0981 25.1615 35.9426 25.663 34.7236 25.9613C34.1945 25.075 33.7798 24.1239 33.492 23.1209C33.5724 22.8745 33.6697 22.6367 33.7798 22.4032C34.0845 21.7634 34.4866 21.184 34.9818 20.6825C36.1542 19.485 37.7075 18.8279 39.3625 18.8279C40.4291 18.8279 41.483 19.1132 42.4014 19.6406C42.2194 20.0211 42.0162 20.3929 41.7962 20.7517L40.3825 23.0431L38.1647 24.4741ZM43.6627 22.6669C44.0182 22.4378 44.3822 22.2303 44.7547 22.0444C46.1133 24.4784 45.7451 27.5868 43.7389 29.6361C43.2521 30.1376 42.6892 30.5483 42.067 30.8552C41.8427 30.9676 41.6057 31.0671 41.3644 31.1492C40.3825 30.8596 39.4513 30.4402 38.5837 29.8998C38.698 29.4156 38.8419 28.9357 39.0154 28.4688C39.2863 27.7468 39.6291 27.0464 40.0354 26.385L41.4364 24.1066L43.6627 22.6669Z" fill="white"/>
<path d="M44.7124 34.746C44.0945 34.1148 43.4003 33.6177 42.6596 33.2545C42.2491 33.0513 41.8216 32.8914 41.3899 32.766C39.8704 33.1637 38.4059 33.8511 37.0811 34.8282C37.3647 36.6007 37.9954 38.2565 38.9011 39.7178C37.4705 38.7969 35.8494 38.1571 34.1141 37.8674C33.1618 39.2206 32.493 40.7165 32.1036 42.2728C32.2221 42.7181 32.383 43.1504 32.5819 43.5698C32.9417 44.322 33.4242 45.0311 34.0379 45.6579C35.5108 47.1624 37.4451 47.9147 39.3752 47.9147C41.0555 47.9147 42.7316 47.344 44.1114 46.2113C43.8024 45.3856 43.4173 44.5987 42.9601 43.8638C43.6839 44.3264 44.4542 44.7198 45.2627 45.0354C47.6456 42.0005 47.4636 37.5562 44.7124 34.746ZM39.3709 46.5269C37.716 46.5269 36.1627 45.8698 34.9902 44.6722C34.4993 44.1707 34.0972 43.5914 33.7967 42.9602C33.6866 42.7311 33.5893 42.489 33.5088 42.2469C33.7924 41.2439 34.203 40.2928 34.7363 39.4065C35.9553 39.7048 37.1065 40.202 38.1774 40.8894L40.4079 42.3247L41.8131 44.5987C42.0332 44.9576 42.2406 45.3294 42.4226 45.7098C41.4999 46.2416 40.446 46.5269 39.3709 46.5269ZM43.6797 42.6879L41.4449 41.2525L40.0397 38.9785C39.3667 37.8847 38.8757 36.7088 38.5837 35.468C39.4514 34.9233 40.3825 34.5039 41.3645 34.21C41.6057 34.2921 41.8385 34.3915 42.0671 34.5039C42.6893 34.8109 43.2564 35.2216 43.7516 35.7274C45.7494 37.768 46.1219 40.8721 44.7717 43.3061C44.3992 43.1202 44.0352 42.9127 43.6797 42.6879Z" fill="white"/>
<path d="M19.2961 30.6259C19.914 31.2571 20.6082 31.7543 21.3489 32.1174C21.7594 32.3206 22.1869 32.4806 22.6186 32.606C24.1381 32.2082 25.6025 31.5208 26.9273 30.5438C26.6437 28.7712 26.0131 27.1155 25.1073 25.6542C26.5379 26.575 28.159 27.2149 29.8943 27.5045C30.8467 26.1514 31.5154 24.6555 31.9048 23.0992C31.7863 22.6539 31.6254 22.2216 31.4265 21.8022C31.0667 21.05 30.5842 20.3409 29.9705 19.7184C28.4976 18.2139 26.5633 17.4617 24.6333 17.4617C22.953 17.4617 21.2769 18.0323 19.8971 19.1693C20.2061 19.9951 20.5912 20.7819 21.0483 21.5169C20.3246 21.0543 19.5585 20.6609 18.7501 20.3453C16.3629 23.3715 16.5449 27.8115 19.2961 30.6259ZM24.6375 18.8451C26.2924 18.8451 27.8458 19.5022 29.0182 20.6998C29.5092 21.2013 29.9113 21.7763 30.2118 22.4118C30.3218 22.6452 30.4192 22.883 30.4996 23.1294C30.216 24.1324 29.8054 25.0835 29.2722 25.9698C28.0532 25.6715 26.9019 25.1743 25.8311 24.4869L23.6006 23.0516L22.1954 20.7776C21.9753 20.4188 21.7721 20.047 21.5859 19.6665C22.5086 19.1304 23.5625 18.8451 24.6375 18.8451ZM20.3246 22.6841L22.5551 24.1195L23.9603 26.3935C24.6375 27.4872 25.1243 28.6632 25.4163 29.9083C24.5486 30.453 23.6175 30.8723 22.6355 31.1663C22.3943 31.0842 22.1615 30.9847 21.9329 30.8723C21.3108 30.5654 20.7436 30.1547 20.2484 29.6489C18.2506 27.6083 17.8782 24.5042 19.2284 22.0702C19.6093 22.2518 19.9733 22.4593 20.3246 22.6841Z" fill="white"/>
</svg>
