<svg width="52" height="51" viewBox="0 0 52 51" fill="none" xmlns="http://www.w3.org/2000/svg">
<g clip-path="url(#clip0)">
<path d="M25.45 0C25.89 0.05 26.32 0.09 26.76 0.15C33.21 0.95 38.83 3.51 43.49 8.07C47.96 12.43 50.62 17.76 51.69 23.89C51.74 24.15 51.79 24.41 51.84 24.68C51.84 24.9 51.84 25.13 51.84 25.35C51.82 25.39 51.79 25.44 51.77 25.48C51.51 26.18 50.88 26.57 50.17 26.48C49.5 26.4 49.01 25.86 48.88 25.15C48.69 24.1 48.53 23.03 48.25 22.01C46.24 14.73 41.96 9.23 35.22 5.74C32.06 4.11 28.68 3.21 25.13 2.96C24.33 2.9 23.75 2.39 23.68 1.64C23.6 0.87 24.05 0.25 24.84 0.04C24.87 0.03 24.9 0.01 24.93 0C25.11 0 25.28 0 25.45 0Z" fill="white"/>
<path d="M25.14 7.23999C26.45 7.35999 27.7 7.59999 28.93 7.95999C36.55 10.18 42.06 16.15 43.68 23.94C43.76 24.31 43.83 24.69 43.81 25.06C43.76 25.8 43.14 26.35 42.41 26.37C41.67 26.39 41.03 25.88 40.9 25.15C40.53 22.96 39.81 20.89 38.67 18.98C35.82 14.22 31.63 11.38 26.19 10.36C25.78 10.28 25.37 10.25 24.96 10.19C24.21 10.08 23.68 9.51999 23.64 8.80999C23.6 8.09999 24.06 7.46999 24.75 7.28999C24.89 7.25999 25.03 7.24999 25.14 7.23999Z" fill="white"/>
<path d="M25.05 14.71C26.01 14.81 26.94 15.03 27.84 15.37C32.25 17.03 35 20.18 36.16 24.73C36.37 25.54 36 26.27 35.27 26.55C34.59 26.81 33.81 26.54 33.46 25.9C33.37 25.74 33.32 25.57 33.28 25.39C32.36 21.34 29.03 18.26 24.93 17.67C24.12 17.55 23.59 17 23.55 16.24C23.52 15.54 24.01 14.91 24.71 14.75C24.82 14.72 24.93 14.72 25.05 14.71Z" fill="white"/>
<mask id="path-4-inside-1" fill="white">
<path d="M35.59 50.39C35.51 50.39 35.44 50.38 35.33 50.37C35.83 50.28 36.31 50.23 36.78 50.12C40.46 49.26 43.06 47.12 44.55 43.63C44.9 42.8 44.98 41.96 44.84 41.07C44.55 39.13 43.48 37.84 41.57 37.41C38.88 36.81 36.16 36.29 33.45 35.77C32.31 35.55 31.16 35.45 29.99 35.54C29.23 35.6 28.58 35.85 28.18 36.56C27.84 37.15 27.49 37.74 27.15 38.32C26.89 38.75 26.63 39.19 26.37 39.63C19.84 36.64 14.93 31.99 11.47 25.74C11.76 25.56 12.03 25.39 12.31 25.24C13.14 24.8 13.93 24.32 14.67 23.74C15.06 23.43 15.28 23.04 15.35 22.56C15.5 21.64 15.42 20.73 15.27 19.83C14.75 16.59 13.9 13.42 13.05 10.25C12.9 9.70003 12.69 9.16002 12.31 8.73002C10.89 7.13002 8.45 6.92003 7.07 7.40003C5.84 7.83003 4.74 8.50003 3.78 9.38003C1.75 11.21 0.66 13.54 0.21 16.2C0.12 16.72 0.07 17.25 0 17.78C0 18.4 0 19.02 0 19.65C0.05 20.06 0.09 20.47 0.14 20.88C0.47 23.56 1.32 26.07 2.51 28.47C4.66 32.79 7.67 36.43 11.29 39.57C15.18 42.95 19.42 45.82 24.11 47.97C26.39 49.01 28.74 49.81 31.23 50.2C31.62 50.26 32.01 50.3 32.41 50.38"/>
</mask>
<path d="M35.33 50.37L35.1528 49.3858L35.2395 51.3659L35.33 50.37ZM36.78 50.12L36.5524 49.1463L36.5521 49.1463L36.78 50.12ZM44.55 43.63L45.4697 44.0227L45.4714 44.0186L44.55 43.63ZM44.84 41.07L43.851 41.2179L43.8521 41.2254L44.84 41.07ZM41.57 37.41L41.7896 36.4344L41.7877 36.434L41.57 37.41ZM33.45 35.77L33.2605 36.7519L33.2616 36.7521L33.45 35.77ZM29.99 35.54L29.9133 34.543L29.9113 34.5431L29.99 35.54ZM28.18 36.56L29.0465 37.0593L29.0512 37.0509L28.18 36.56ZM27.15 38.32L28.0058 38.8375L28.0127 38.8257L27.15 38.32ZM26.37 39.63L25.9537 40.5392L26.7727 40.9143L27.2309 40.1388L26.37 39.63ZM11.47 25.74L10.9426 24.8904L10.1344 25.3921L10.5951 26.2244L11.47 25.74ZM12.31 25.24L11.8416 24.3565L11.8378 24.3585L12.31 25.24ZM14.67 23.74L15.2869 24.5271L15.2922 24.5228L14.67 23.74ZM15.35 22.56L14.363 22.3991L14.3617 22.4074L14.3605 22.4157L15.35 22.56ZM15.27 19.83L14.2826 19.9885L14.2836 19.9944L15.27 19.83ZM13.05 10.25L14.0159 9.99103L14.0148 9.98691L13.05 10.25ZM12.31 8.73002L13.0593 8.06783L13.0579 8.06624L12.31 8.73002ZM7.07 7.40003L6.74148 6.45553L6.73999 6.45605L7.07 7.40003ZM3.78 9.38003L4.44959 10.1228L4.45572 10.1172L3.78 9.38003ZM0.21 16.2L1.19536 16.3706L1.19599 16.3668L0.21 16.2ZM0 17.78L-0.991391 17.6491L-1 17.7143V17.78H0ZM0 19.65H-1V19.7108L-0.992646 19.7711L0 19.65ZM0.14 20.88L-0.852647 21.0011L-0.852504 21.0022L0.14 20.88ZM2.51 28.47L1.61408 28.9142L1.61475 28.9156L2.51 28.47ZM11.29 39.57L11.9459 38.8152L11.9452 38.8146L11.29 39.57ZM24.11 47.97L23.6933 48.8791L23.695 48.8798L24.11 47.97ZM31.23 50.2L31.0753 51.188L31.0779 51.1884L31.23 50.2ZM35.59 49.39C35.5927 49.39 35.5887 49.3903 35.5618 49.3879C35.5471 49.3865 35.5311 49.3849 35.506 49.3824C35.4824 49.38 35.4533 49.3771 35.4205 49.3741L35.2395 51.3659C35.2892 51.3704 35.4495 51.39 35.59 51.39V49.39ZM35.5072 51.3542C35.896 51.2842 36.5185 51.2082 37.0079 51.0937L36.5521 49.1463C36.1015 49.2518 35.764 49.2758 35.1528 49.3858L35.5072 51.3542ZM37.0076 51.0938C40.9913 50.1628 43.8521 47.8115 45.4697 44.0227L43.6303 43.2374C42.2679 46.4286 39.9287 48.3572 36.5524 49.1463L37.0076 51.0938ZM45.4714 44.0186C45.9007 43.0006 45.9939 41.9702 45.8279 40.9146L43.8521 41.2254C43.9661 41.9498 43.8993 42.5994 43.6286 43.2415L45.4714 44.0186ZM45.829 40.9222C45.6623 39.8069 45.26 38.8079 44.5644 38.0145C43.8641 37.2158 42.9222 36.6894 41.7896 36.4344L41.3504 38.3856C42.1278 38.5606 42.6759 38.8943 43.0606 39.333C43.45 39.7772 43.7277 40.3932 43.851 41.2179L45.829 40.9222ZM41.7877 36.434C39.0805 35.8302 36.3453 35.3073 33.6384 34.7879L33.2616 36.7521C35.9747 37.2727 38.6795 37.7899 41.3523 38.386L41.7877 36.434ZM33.6395 34.7881C32.4321 34.5551 31.1907 34.4447 29.9133 34.543L30.0667 36.5371C31.1293 36.4553 32.1879 36.5449 33.2605 36.7519L33.6395 34.7881ZM29.9113 34.5431C28.9691 34.6175 27.9342 34.9589 27.3088 36.0692L29.0512 37.0509C29.2258 36.7411 29.4909 36.5825 30.0687 36.5369L29.9113 34.5431ZM27.3136 36.0607C26.976 36.6465 26.6309 37.2282 26.2873 37.8143L28.0127 38.8257C28.3491 38.2519 28.704 37.6535 29.0464 37.0593L27.3136 36.0607ZM26.2943 37.8026C26.0312 38.2377 25.7686 38.6821 25.5091 39.1213L27.2309 40.1388C27.4914 39.698 27.7488 39.2624 28.0057 38.8374L26.2943 37.8026ZM26.7863 38.7208C20.457 35.8227 15.7048 31.3249 12.3449 25.2557L10.5951 26.2244C14.1552 32.6552 19.223 37.4574 25.9537 40.5392L26.7863 38.7208ZM11.9974 26.5897C12.298 26.403 12.5368 26.253 12.7822 26.1215L11.8378 24.3585C11.5232 24.5271 11.222 24.717 10.9426 24.8904L11.9974 26.5897ZM12.7784 26.1236C13.6415 25.666 14.4859 25.1549 15.2869 24.5271L14.0531 22.953C13.3741 23.4852 12.6385 23.934 11.8416 24.3565L12.7784 26.1236ZM15.2922 24.5228C15.8831 24.0532 16.2331 23.434 16.3395 22.7043L14.3605 22.4157C14.3269 22.646 14.2369 22.8069 14.0478 22.9572L15.2922 24.5228ZM16.337 22.7209C16.5125 21.6442 16.4138 20.6099 16.2564 19.6656L14.2836 19.9944C14.4262 20.8501 14.4875 21.6359 14.363 22.3991L16.337 22.7209ZM16.2574 19.6716C15.7278 16.3723 14.8636 13.1527 14.0159 9.99104L12.0841 10.509C12.9364 13.6874 13.7722 16.8078 14.2826 19.9885L16.2574 19.6716ZM14.0148 9.98691C13.8502 9.38338 13.59 8.66837 13.0593 8.06783L11.5607 9.39222C11.79 9.65168 11.9498 10.0167 12.0852 10.5131L14.0148 9.98691ZM13.0579 8.06624C12.1714 7.06737 10.9921 6.52923 9.87161 6.30454C8.76053 6.08175 7.62191 6.14929 6.74148 6.45553L7.39852 8.34452C7.89809 8.17076 8.66947 8.1033 9.47839 8.26551C10.2779 8.42582 11.0286 8.79268 11.5621 9.39381L13.0579 8.06624ZM6.73999 6.45605C5.37687 6.93259 4.16027 7.67487 3.10428 8.64287L4.45572 10.1172C5.31973 9.32518 6.30313 8.72746 7.40001 8.344L6.73999 6.45605ZM3.11043 8.63728C0.881726 10.6464 -0.296116 13.1966 -0.77599 16.0332L1.19599 16.3668C1.61612 13.8834 2.61827 11.7736 4.44957 10.1228L3.11043 8.63728ZM-0.775351 16.0295C-0.869475 16.5733 -0.92826 17.1711 -0.991391 17.6491L0.991391 17.911C1.06826 17.329 1.10948 16.8667 1.19535 16.3706L-0.775351 16.0295ZM-1 17.78C-1 17.7812 -1 17.7824 -1 17.7837C-1 17.7849 -1 17.7861 -1 17.7873C-1 17.7885 -1 17.7897 -1 17.7909C-1 17.7921 -1 17.7933 -1 17.7946C-1 17.7958 -1 17.797 -1 17.7982C-1 17.7994 -1 17.8006 -1 17.8018C-1 17.803 -1 17.8042 -1 17.8055C-1 17.8067 -1 17.8079 -1 17.8091C-1 17.8103 -1 17.8115 -1 17.8127C-1 17.8139 -1 17.8151 -1 17.8164C-1 17.8176 -1 17.8188 -1 17.82C-1 17.8212 -1 17.8224 -1 17.8236C-1 17.8248 -1 17.826 -1 17.8273C-1 17.8285 -1 17.8297 -1 17.8309C-1 17.8321 -1 17.8333 -1 17.8345C-1 17.8357 -1 17.8369 -1 17.8382C-1 17.8394 -1 17.8406 -1 17.8418C-1 17.843 -1 17.8442 -1 17.8454C-1 17.8466 -1 17.8478 -1 17.8491C-1 17.8503 -1 17.8515 -1 17.8527C-1 17.8539 -1 17.8551 -1 17.8563C-1 17.8575 -1 17.8587 -1 17.8599C-1 17.8612 -1 17.8624 -1 17.8636C-1 17.8648 -1 17.866 -1 17.8672C-1 17.8684 -1 17.8696 -1 17.8708C-1 17.8721 -1 17.8733 -1 17.8745C-1 17.8757 -1 17.8769 -1 17.8781C-1 17.8793 -1 17.8805 -1 17.8817C-1 17.883 -1 17.8842 -1 17.8854C-1 17.8866 -1 17.8878 -1 17.889C-1 17.8902 -1 17.8914 -1 17.8926C-1 17.8939 -1 17.8951 -1 17.8963C-1 17.8975 -1 17.8987 -1 17.8999C-1 17.9011 -1 17.9023 -1 17.9035C-1 17.9048 -1 17.906 -1 17.9072C-1 17.9084 -1 17.9096 -1 17.9108C-1 17.912 -1 17.9132 -1 17.9144C-1 17.9157 -1 17.9169 -1 17.9181C-1 17.9193 -1 17.9205 -1 17.9217C-1 17.9229 -1 17.9241 -1 17.9253C-1 17.9266 -1 17.9278 -1 17.929C-1 17.9302 -1 17.9314 -1 17.9326C-1 17.9338 -1 17.935 -1 17.9362C-1 17.9375 -1 17.9387 -1 17.9399C-1 17.9411 -1 17.9423 -1 17.9435C-1 17.9447 -1 17.9459 -1 17.9471C-1 17.9484 -1 17.9496 -1 17.9508C-1 17.952 -1 17.9532 -1 17.9544C-1 17.9556 -1 17.9568 -1 17.958C-1 17.9593 -1 17.9605 -1 17.9617C-1 17.9629 -1 17.9641 -1 17.9653C-1 17.9665 -1 17.9677 -1 17.9689C-1 17.9702 -1 17.9714 -1 17.9726C-1 17.9738 -1 17.975 -1 17.9762C-1 17.9774 -1 17.9786 -1 17.9798C-1 17.9811 -1 17.9823 -1 17.9835C-1 17.9847 -1 17.9859 -1 17.9871C-1 17.9883 -1 17.9895 -1 17.9907C-1 17.992 -1 17.9932 -1 17.9944C-1 17.9956 -1 17.9968 -1 17.998C-1 17.9992 -1 18.0004 -1 18.0016C-1 18.0029 -1 18.0041 -1 18.0053C-1 18.0065 -1 18.0077 -1 18.0089C-1 18.0101 -1 18.0113 -1 18.0125C-1 18.0138 -1 18.015 -1 18.0162C-1 18.0174 -1 18.0186 -1 18.0198C-1 18.021 -1 18.0222 -1 18.0234C-1 18.0247 -1 18.0259 -1 18.0271C-1 18.0283 -1 18.0295 -1 18.0307C-1 18.0319 -1 18.0331 -1 18.0343C-1 18.0356 -1 18.0368 -1 18.038C-1 18.0392 -1 18.0404 -1 18.0416C-1 18.0428 -1 18.044 -1 18.0453C-1 18.0465 -1 18.0477 -1 18.0489C-1 18.0501 -1 18.0513 -1 18.0525C-1 18.0537 -1 18.0549 -1 18.0562C-1 18.0574 -1 18.0586 -1 18.0598C-1 18.061 -1 18.0622 -1 18.0634C-1 18.0646 -1 18.0658 -1 18.0671C-1 18.0683 -1 18.0695 -1 18.0707C-1 18.0719 -1 18.0731 -1 18.0743C-1 18.0755 -1 18.0767 -1 18.078C-1 18.0792 -1 18.0804 -1 18.0816C-1 18.0828 -1 18.084 -1 18.0852C-1 18.0864 -1 18.0876 -1 18.0889C-1 18.0901 -1 18.0913 -1 18.0925C-1 18.0937 -1 18.0949 -1 18.0961C-1 18.0973 -1 18.0986 -1 18.0998C-1 18.101 -1 18.1022 -1 18.1034C-1 18.1046 -1 18.1058 -1 18.107C-1 18.1082 -1 18.1095 -1 18.1107C-1 18.1119 -1 18.1131 -1 18.1143C-1 18.1155 -1 18.1167 -1 18.1179C-1 18.1191 -1 18.1204 -1 18.1216C-1 18.1228 -1 18.124 -1 18.1252C-1 18.1264 -1 18.1276 -1 18.1288C-1 18.1301 -1 18.1313 -1 18.1325C-1 18.1337 -1 18.1349 -1 18.1361C-1 18.1373 -1 18.1385 -1 18.1397C-1 18.141 -1 18.1422 -1 18.1434C-1 18.1446 -1 18.1458 -1 18.147C-1 18.1482 -1 18.1494 -1 18.1507C-1 18.1519 -1 18.1531 -1 18.1543C-1 18.1555 -1 18.1567 -1 18.1579C-1 18.1591 -1 18.1603 -1 18.1616C-1 18.1628 -1 18.164 -1 18.1652C-1 18.1664 -1 18.1676 -1 18.1688C-1 18.17 -1 18.1713 -1 18.1725C-1 18.1737 -1 18.1749 -1 18.1761C-1 18.1773 -1 18.1785 -1 18.1797C-1 18.1809 -1 18.1822 -1 18.1834C-1 18.1846 -1 18.1858 -1 18.187C-1 18.1882 -1 18.1894 -1 18.1906C-1 18.1919 -1 18.1931 -1 18.1943C-1 18.1955 -1 18.1967 -1 18.1979C-1 18.1991 -1 18.2003 -1 18.2015C-1 18.2028 -1 18.204 -1 18.2052C-1 18.2064 -1 18.2076 -1 18.2088C-1 18.21 -1 18.2112 -1 18.2125C-1 18.2137 -1 18.2149 -1 18.2161C-1 18.2173 -1 18.2185 -1 18.2197C-1 18.2209 -1 18.2222 -1 18.2234C-1 18.2246 -1 18.2258 -1 18.227C-1 18.2282 -1 18.2294 -1 18.2306C-1 18.2318 -1 18.2331 -1 18.2343C-1 18.2355 -1 18.2367 -1 18.2379C-1 18.2391 -1 18.2403 -1 18.2415C-1 18.2428 -1 18.244 -1 18.2452C-1 18.2464 -1 18.2476 -1 18.2488C-1 18.25 -1 18.2512 -1 18.2525C-1 18.2537 -1 18.2549 -1 18.2561C-1 18.2573 -1 18.2585 -1 18.2597C-1 18.2609 -1 18.2622 -1 18.2634C-1 18.2646 -1 18.2658 -1 18.267C-1 18.2682 -1 18.2694 -1 18.2706C-1 18.2719 -1 18.2731 -1 18.2743C-1 18.2755 -1 18.2767 -1 18.2779C-1 18.2791 -1 18.2803 -1 18.2816C-1 18.2828 -1 18.284 -1 18.2852C-1 18.2864 -1 18.2876 -1 18.2888C-1 18.29 -1 18.2912 -1 18.2925C-1 18.2937 -1 18.2949 -1 18.2961C-1 18.2973 -1 18.2985 -1 18.2997C-1 18.3009 -1 18.3022 -1 18.3034C-1 18.3046 -1 18.3058 -1 18.307C-1 18.3082 -1 18.3094 -1 18.3106C-1 18.3119 -1 18.3131 -1 18.3143C-1 18.3155 -1 18.3167 -1 18.3179C-1 18.3191 -1 18.3203 -1 18.3216C-1 18.3228 -1 18.324 -1 18.3252C-1 18.3264 -1 18.3276 -1 18.3288C-1 18.3301 -1 18.3313 -1 18.3325C-1 18.3337 -1 18.3349 -1 18.3361C-1 18.3373 -1 18.3385 -1 18.3398C-1 18.341 -1 18.3422 -1 18.3434C-1 18.3446 -1 18.3458 -1 18.347C-1 18.3482 -1 18.3495 -1 18.3507C-1 18.3519 -1 18.3531 -1 18.3543C-1 18.3555 -1 18.3567 -1 18.3579C-1 18.3592 -1 18.3604 -1 18.3616C-1 18.3628 -1 18.364 -1 18.3652C-1 18.3664 -1 18.3676 -1 18.3689C-1 18.3701 -1 18.3713 -1 18.3725C-1 18.3737 -1 18.3749 -1 18.3761C-1 18.3773 -1 18.3786 -1 18.3798C-1 18.381 -1 18.3822 -1 18.3834C-1 18.3846 -1 18.3858 -1 18.3871C-1 18.3883 -1 18.3895 -1 18.3907C-1 18.3919 -1 18.3931 -1 18.3943C-1 18.3955 -1 18.3968 -1 18.398C-1 18.3992 -1 18.4004 -1 18.4016C-1 18.4028 -1 18.404 -1 18.4052C-1 18.4065 -1 18.4077 -1 18.4089C-1 18.4101 -1 18.4113 -1 18.4125C-1 18.4137 -1 18.415 -1 18.4162C-1 18.4174 -1 18.4186 -1 18.4198C-1 18.421 -1 18.4222 -1 18.4234C-1 18.4247 -1 18.4259 -1 18.4271C-1 18.4283 -1 18.4295 -1 18.4307C-1 18.4319 -1 18.4332 -1 18.4344C-1 18.4356 -1 18.4368 -1 18.438C-1 18.4392 -1 18.4404 -1 18.4416C-1 18.4429 -1 18.4441 -1 18.4453C-1 18.4465 -1 18.4477 -1 18.4489C-1 18.4501 -1 18.4514 -1 18.4526C-1 18.4538 -1 18.455 -1 18.4562C-1 18.4574 -1 18.4586 -1 18.4598C-1 18.4611 -1 18.4623 -1 18.4635C-1 18.4647 -1 18.4659 -1 18.4671C-1 18.4683 -1 18.4696 -1 18.4708C-1 18.472 -1 18.4732 -1 18.4744C-1 18.4756 -1 18.4768 -1 18.4781C-1 18.4793 -1 18.4805 -1 18.4817C-1 18.4829 -1 18.4841 -1 18.4853C-1 18.4865 -1 18.4878 -1 18.489C-1 18.4902 -1 18.4914 -1 18.4926C-1 18.4938 -1 18.495 -1 18.4963C-1 18.4975 -1 18.4987 -1 18.4999C-1 18.5011 -1 18.5023 -1 18.5035C-1 18.5048 -1 18.506 -1 18.5072C-1 18.5084 -1 18.5096 -1 18.5108C-1 18.512 -1 18.5133 -1 18.5145C-1 18.5157 -1 18.5169 -1 18.5181C-1 18.5193 -1 18.5205 -1 18.5218C-1 18.523 -1 18.5242 -1 18.5254C-1 18.5266 -1 18.5278 -1 18.529C-1 18.5303 -1 18.5315 -1 18.5327C-1 18.5339 -1 18.5351 -1 18.5363C-1 18.5375 -1 18.5387 -1 18.54C-1 18.5412 -1 18.5424 -1 18.5436C-1 18.5448 -1 18.546 -1 18.5472C-1 18.5485 -1 18.5497 -1 18.5509C-1 18.5521 -1 18.5533 -1 18.5545C-1 18.5557 -1 18.557 -1 18.5582C-1 18.5594 -1 18.5606 -1 18.5618C-1 18.563 -1 18.5642 -1 18.5655C-1 18.5667 -1 18.5679 -1 18.5691C-1 18.5703 -1 18.5715 -1 18.5728C-1 18.574 -1 18.5752 -1 18.5764C-1 18.5776 -1 18.5788 -1 18.58C-1 18.5813 -1 18.5825 -1 18.5837C-1 18.5849 -1 18.5861 -1 18.5873C-1 18.5885 -1 18.5898 -1 18.591C-1 18.5922 -1 18.5934 -1 18.5946C-1 18.5958 -1 18.597 -1 18.5983C-1 18.5995 -1 18.6007 -1 18.6019C-1 18.6031 -1 18.6043 -1 18.6055C-1 18.6068 -1 18.608 -1 18.6092C-1 18.6104 -1 18.6116 -1 18.6128C-1 18.614 -1 18.6153 -1 18.6165C-1 18.6177 -1 18.6189 -1 18.6201C-1 18.6213 -1 18.6226 -1 18.6238C-1 18.625 -1 18.6262 -1 18.6274C-1 18.6286 -1 18.6298 -1 18.6311C-1 18.6323 -1 18.6335 -1 18.6347C-1 18.6359 -1 18.6371 -1 18.6383C-1 18.6396 -1 18.6408 -1 18.642C-1 18.6432 -1 18.6444 -1 18.6456C-1 18.6469 -1 18.6481 -1 18.6493C-1 18.6505 -1 18.6517 -1 18.6529C-1 18.6541 -1 18.6554 -1 18.6566C-1 18.6578 -1 18.659 -1 18.6602C-1 18.6614 -1 18.6627 -1 18.6639C-1 18.6651 -1 18.6663 -1 18.6675C-1 18.6687 -1 18.6699 -1 18.6712C-1 18.6724 -1 18.6736 -1 18.6748C-1 18.676 -1 18.6772 -1 18.6785C-1 18.6797 -1 18.6809 -1 18.6821C-1 18.6833 -1 18.6845 -1 18.6857C-1 18.687 -1 18.6882 -1 18.6894C-1 18.6906 -1 18.6918 -1 18.693C-1 18.6943 -1 18.6955 -1 18.6967C-1 18.6979 -1 18.6991 -1 18.7003C-1 18.7015 -1 18.7028 -1 18.704C-1 18.7052 -1 18.7064 -1 18.7076C-1 18.7088 -1 18.7101 -1 18.7113C-1 18.7125 -1 18.7137 -1 18.7149C-1 18.7161 -1 18.7174 -1 18.7186C-1 18.7198 -1 18.721 -1 18.7222C-1 18.7234 -1 18.7247 -1 18.7259C-1 18.7271 -1 18.7283 -1 18.7295C-1 18.7307 -1 18.7319 -1 18.7332C-1 18.7344 -1 18.7356 -1 18.7368C-1 18.738 -1 18.7392 -1 18.7405C-1 18.7417 -1 18.7429 -1 18.7441C-1 18.7453 -1 18.7465 -1 18.7478C-1 18.749 -1 18.7502 -1 18.7514C-1 18.7526 -1 18.7538 -1 18.7551C-1 18.7563 -1 18.7575 -1 18.7587C-1 18.7599 -1 18.7611 -1 18.7624C-1 18.7636 -1 18.7648 -1 18.766C-1 18.7672 -1 18.7684 -1 18.7697C-1 18.7709 -1 18.7721 -1 18.7733C-1 18.7745 -1 18.7757 -1 18.7769C-1 18.7782 -1 18.7794 -1 18.7806C-1 18.7818 -1 18.783 -1 18.7842C-1 18.7855 -1 18.7867 -1 18.7879C-1 18.7891 -1 18.7903 -1 18.7915C-1 18.7928 -1 18.794 -1 18.7952C-1 18.7964 -1 18.7976 -1 18.7988C-1 18.8001 -1 18.8013 -1 18.8025C-1 18.8037 -1 18.8049 -1 18.8061C-1 18.8074 -1 18.8086 -1 18.8098C-1 18.811 -1 18.8122 -1 18.8135C-1 18.8147 -1 18.8159 -1 18.8171C-1 18.8183 -1 18.8195 -1 18.8208C-1 18.822 -1 18.8232 -1 18.8244C-1 18.8256 -1 18.8268 -1 18.8281C-1 18.8293 -1 18.8305 -1 18.8317C-1 18.8329 -1 18.8341 -1 18.8354C-1 18.8366 -1 18.8378 -1 18.839C-1 18.8402 -1 18.8414 -1 18.8427C-1 18.8439 -1 18.8451 -1 18.8463C-1 18.8475 -1 18.8487 -1 18.85C-1 18.8512 -1 18.8524 -1 18.8536C-1 18.8548 -1 18.8561 -1 18.8573C-1 18.8585 -1 18.8597 -1 18.8609C-1 18.8621 -1 18.8634 -1 18.8646C-1 18.8658 -1 18.867 -1 18.8682C-1 18.8694 -1 18.8707 -1 18.8719C-1 18.8731 -1 18.8743 -1 18.8755C-1 18.8768 -1 18.878 -1 18.8792C-1 18.8804 -1 18.8816 -1 18.8828C-1 18.8841 -1 18.8853 -1 18.8865C-1 18.8877 -1 18.8889 -1 18.8901C-1 18.8914 -1 18.8926 -1 18.8938C-1 18.895 -1 18.8962 -1 18.8975C-1 18.8987 -1 18.8999 -1 18.9011C-1 18.9023 -1 18.9035 -1 18.9048C-1 18.906 -1 18.9072 -1 18.9084C-1 18.9096 -1 18.9109 -1 18.9121C-1 18.9133 -1 18.9145 -1 18.9157C-1 18.9169 -1 18.9182 -1 18.9194C-1 18.9206 -1 18.9218 -1 18.923C-1 18.9243 -1 18.9255 -1 18.9267C-1 18.9279 -1 18.9291 -1 18.9303C-1 18.9316 -1 18.9328 -1 18.934C-1 18.9352 -1 18.9364 -1 18.9377C-1 18.9389 -1 18.9401 -1 18.9413C-1 18.9425 -1 18.9437 -1 18.945C-1 18.9462 -1 18.9474 -1 18.9486C-1 18.9498 -1 18.9511 -1 18.9523C-1 18.9535 -1 18.9547 -1 18.9559C-1 18.9572 -1 18.9584 -1 18.9596C-1 18.9608 -1 18.962 -1 18.9632C-1 18.9645 -1 18.9657 -1 18.9669C-1 18.9681 -1 18.9693 -1 18.9706C-1 18.9718 -1 18.973 -1 18.9742C-1 18.9754 -1 18.9767 -1 18.9779C-1 18.9791 -1 18.9803 -1 18.9815C-1 18.9827 -1 18.984 -1 18.9852C-1 18.9864 -1 18.9876 -1 18.9888C-1 18.9901 -1 18.9913 -1 18.9925C-1 18.9937 -1 18.9949 -1 18.9962C-1 18.9974 -1 18.9986 -1 18.9998C-1 19.001 -1 19.0023 -1 19.0035C-1 19.0047 -1 19.0059 -1 19.0071C-1 19.0084 -1 19.0096 -1 19.0108C-1 19.012 -1 19.0132 -1 19.0145C-1 19.0157 -1 19.0169 -1 19.0181C-1 19.0193 -1 19.0205 -1 19.0218C-1 19.023 -1 19.0242 -1 19.0254C-1 19.0266 -1 19.0279 -1 19.0291C-1 19.0303 -1 19.0315 -1 19.0327C-1 19.034 -1 19.0352 -1 19.0364C-1 19.0376 -1 19.0388 -1 19.0401C-1 19.0413 -1 19.0425 -1 19.0437C-1 19.0449 -1 19.0462 -1 19.0474C-1 19.0486 -1 19.0498 -1 19.051C-1 19.0523 -1 19.0535 -1 19.0547C-1 19.0559 -1 19.0571 -1 19.0584C-1 19.0596 -1 19.0608 -1 19.062C-1 19.0632 -1 19.0645 -1 19.0657C-1 19.0669 -1 19.0681 -1 19.0693C-1 19.0706 -1 19.0718 -1 19.073C-1 19.0742 -1 19.0754 -1 19.0767C-1 19.0779 -1 19.0791 -1 19.0803C-1 19.0815 -1 19.0828 -1 19.084C-1 19.0852 -1 19.0864 -1 19.0877C-1 19.0889 -1 19.0901 -1 19.0913C-1 19.0925 -1 19.0938 -1 19.095C-1 19.0962 -1 19.0974 -1 19.0986C-1 19.0999 -1 19.1011 -1 19.1023C-1 19.1035 -1 19.1047 -1 19.106C-1 19.1072 -1 19.1084 -1 19.1096C-1 19.1108 -1 19.1121 -1 19.1133C-1 19.1145 -1 19.1157 -1 19.117C-1 19.1182 -1 19.1194 -1 19.1206C-1 19.1218 -1 19.1231 -1 19.1243C-1 19.1255 -1 19.1267 -1 19.1279C-1 19.1292 -1 19.1304 -1 19.1316C-1 19.1328 -1 19.134 -1 19.1353C-1 19.1365 -1 19.1377 -1 19.1389C-1 19.1402 -1 19.1414 -1 19.1426C-1 19.1438 -1 19.145 -1 19.1463C-1 19.1475 -1 19.1487 -1 19.1499C-1 19.1511 -1 19.1524 -1 19.1536C-1 19.1548 -1 19.156 -1 19.1573C-1 19.1585 -1 19.1597 -1 19.1609C-1 19.1621 -1 19.1634 -1 19.1646C-1 19.1658 -1 19.167 -1 19.1682C-1 19.1695 -1 19.1707 -1 19.1719C-1 19.1731 -1 19.1744 -1 19.1756C-1 19.1768 -1 19.178 -1 19.1792C-1 19.1805 -1 19.1817 -1 19.1829C-1 19.1841 -1 19.1854 -1 19.1866C-1 19.1878 -1 19.189 -1 19.1902C-1 19.1915 -1 19.1927 -1 19.1939C-1 19.1951 -1 19.1964 -1 19.1976C-1 19.1988 -1 19.2 -1 19.2012C-1 19.2025 -1 19.2037 -1 19.2049C-1 19.2061 -1 19.2074 -1 19.2086C-1 19.2098 -1 19.211 -1 19.2122C-1 19.2135 -1 19.2147 -1 19.2159C-1 19.2171 -1 19.2184 -1 19.2196C-1 19.2208 -1 19.222 -1 19.2232C-1 19.2245 -1 19.2257 -1 19.2269C-1 19.2281 -1 19.2294 -1 19.2306C-1 19.2318 -1 19.233 -1 19.2343C-1 19.2355 -1 19.2367 -1 19.2379C-1 19.2391 -1 19.2404 -1 19.2416C-1 19.2428 -1 19.244 -1 19.2453C-1 19.2465 -1 19.2477 -1 19.2489C-1 19.2501 -1 19.2514 -1 19.2526C-1 19.2538 -1 19.255 -1 19.2563C-1 19.2575 -1 19.2587 -1 19.2599C-1 19.2612 -1 19.2624 -1 19.2636C-1 19.2648 -1 19.2661 -1 19.2673C-1 19.2685 -1 19.2697 -1 19.2709C-1 19.2722 -1 19.2734 -1 19.2746C-1 19.2758 -1 19.2771 -1 19.2783C-1 19.2795 -1 19.2807 -1 19.282C-1 19.2832 -1 19.2844 -1 19.2856C-1 19.2868 -1 19.2881 -1 19.2893C-1 19.2905 -1 19.2917 -1 19.293C-1 19.2942 -1 19.2954 -1 19.2966C-1 19.2979 -1 19.2991 -1 19.3003C-1 19.3015 -1 19.3028 -1 19.304C-1 19.3052 -1 19.3064 -1 19.3077C-1 19.3089 -1 19.3101 -1 19.3113C-1 19.3126 -1 19.3138 -1 19.315C-1 19.3162 -1 19.3174 -1 19.3187C-1 19.3199 -1 19.3211 -1 19.3223C-1 19.3236 -1 19.3248 -1 19.326C-1 19.3272 -1 19.3285 -1 19.3297C-1 19.3309 -1 19.3321 -1 19.3334C-1 19.3346 -1 19.3358 -1 19.337C-1 19.3383 -1 19.3395 -1 19.3407C-1 19.3419 -1 19.3432 -1 19.3444C-1 19.3456 -1 19.3468 -1 19.3481C-1 19.3493 -1 19.3505 -1 19.3517C-1 19.353 -1 19.3542 -1 19.3554C-1 19.3566 -1 19.3579 -1 19.3591C-1 19.3603 -1 19.3615 -1 19.3628C-1 19.364 -1 19.3652 -1 19.3664C-1 19.3677 -1 19.3689 -1 19.3701C-1 19.3713 -1 19.3726 -1 19.3738C-1 19.375 -1 19.3762 -1 19.3775C-1 19.3787 -1 19.3799 -1 19.3811C-1 19.3824 -1 19.3836 -1 19.3848C-1 19.386 -1 19.3873 -1 19.3885C-1 19.3897 -1 19.3909 -1 19.3922C-1 19.3934 -1 19.3946 -1 19.3958C-1 19.3971 -1 19.3983 -1 19.3995C-1 19.4007 -1 19.402 -1 19.4032C-1 19.4044 -1 19.4056 -1 19.4069C-1 19.4081 -1 19.4093 -1 19.4105C-1 19.4118 -1 19.413 -1 19.4142C-1 19.4155 -1 19.4167 -1 19.4179C-1 19.4191 -1 19.4204 -1 19.4216C-1 19.4228 -1 19.424 -1 19.4253C-1 19.4265 -1 19.4277 -1 19.4289C-1 19.4302 -1 19.4314 -1 19.4326C-1 19.4338 -1 19.4351 -1 19.4363C-1 19.4375 -1 19.4387 -1 19.44C-1 19.4412 -1 19.4424 -1 19.4437C-1 19.4449 -1 19.4461 -1 19.4473C-1 19.4486 -1 19.4498 -1 19.451C-1 19.4522 -1 19.4535 -1 19.4547C-1 19.4559 -1 19.4571 -1 19.4584C-1 19.4596 -1 19.4608 -1 19.4621C-1 19.4633 -1 19.4645 -1 19.4657C-1 19.467 -1 19.4682 -1 19.4694C-1 19.4706 -1 19.4719 -1 19.4731C-1 19.4743 -1 19.4755 -1 19.4768C-1 19.478 -1 19.4792 -1 19.4805C-1 19.4817 -1 19.4829 -1 19.4841C-1 19.4854 -1 19.4866 -1 19.4878C-1 19.489 -1 19.4903 -1 19.4915C-1 19.4927 -1 19.494 -1 19.4952C-1 19.4964 -1 19.4976 -1 19.4989C-1 19.5001 -1 19.5013 -1 19.5025C-1 19.5038 -1 19.505 -1 19.5062C-1 19.5075 -1 19.5087 -1 19.5099C-1 19.5111 -1 19.5124 -1 19.5136C-1 19.5148 -1 19.5161 -1 19.5173C-1 19.5185 -1 19.5197 -1 19.521C-1 19.5222 -1 19.5234 -1 19.5246C-1 19.5259 -1 19.5271 -1 19.5283C-1 19.5296 -1 19.5308 -1 19.532C-1 19.5332 -1 19.5345 -1 19.5357C-1 19.5369 -1 19.5382 -1 19.5394C-1 19.5406 -1 19.5418 -1 19.5431C-1 19.5443 -1 19.5455 -1 19.5468C-1 19.548 -1 19.5492 -1 19.5504C-1 19.5517 -1 19.5529 -1 19.5541C-1 19.5554 -1 19.5566 -1 19.5578C-1 19.559 -1 19.5603 -1 19.5615C-1 19.5627 -1 19.564 -1 19.5652C-1 19.5664 -1 19.5676 -1 19.5689C-1 19.5701 -1 19.5713 -1 19.5726C-1 19.5738 -1 19.575 -1 19.5762C-1 19.5775 -1 19.5787 -1 19.5799C-1 19.5812 -1 19.5824 -1 19.5836C-1 19.5848 -1 19.5861 -1 19.5873C-1 19.5885 -1 19.5898 -1 19.591C-1 19.5922 -1 19.5935 -1 19.5947C-1 19.5959 -1 19.5971 -1 19.5984C-1 19.5996 -1 19.6008 -1 19.6021C-1 19.6033 -1 19.6045 -1 19.6057C-1 19.607 -1 19.6082 -1 19.6094C-1 19.6107 -1 19.6119 -1 19.6131C-1 19.6144 -1 19.6156 -1 19.6168C-1 19.618 -1 19.6193 -1 19.6205C-1 19.6217 -1 19.623 -1 19.6242C-1 19.6254 -1 19.6267 -1 19.6279C-1 19.6291 -1 19.6303 -1 19.6316C-1 19.6328 -1 19.634 -1 19.6353C-1 19.6365 -1 19.6377 -1 19.639C-1 19.6402 -1 19.6414 -1 19.6426C-1 19.6439 -1 19.6451 -1 19.6463C-1 19.6476 -1 19.6488 -1 19.65H1C1 19.6488 1 19.6476 1 19.6463C1 19.6451 1 19.6439 1 19.6426C1 19.6414 1 19.6402 1 19.639C1 19.6377 1 19.6365 1 19.6353C1 19.634 1 19.6328 1 19.6316C1 19.6303 1 19.6291 1 19.6279C1 19.6267 1 19.6254 1 19.6242C1 19.623 1 19.6217 1 19.6205C1 19.6193 1 19.618 1 19.6168C1 19.6156 1 19.6144 1 19.6131C1 19.6119 1 19.6107 1 19.6094C1 19.6082 1 19.607 1 19.6057C1 19.6045 1 19.6033 1 19.6021C1 19.6008 1 19.5996 1 19.5984C1 19.5971 1 19.5959 1 19.5947C1 19.5935 1 19.5922 1 19.591C1 19.5898 1 19.5885 1 19.5873C1 19.5861 1 19.5848 1 19.5836C1 19.5824 1 19.5812 1 19.5799C1 19.5787 1 19.5775 1 19.5762C1 19.575 1 19.5738 1 19.5726C1 19.5713 1 19.5701 1 19.5689C1 19.5676 1 19.5664 1 19.5652C1 19.564 1 19.5627 1 19.5615C1 19.5603 1 19.559 1 19.5578C1 19.5566 1 19.5554 1 19.5541C1 19.5529 1 19.5517 1 19.5504C1 19.5492 1 19.548 1 19.5468C1 19.5455 1 19.5443 1 19.5431C1 19.5418 1 19.5406 1 19.5394C1 19.5382 1 19.5369 1 19.5357C1 19.5345 1 19.5332 1 19.532C1 19.5308 1 19.5296 1 19.5283C1 19.5271 1 19.5259 1 19.5246C1 19.5234 1 19.5222 1 19.521C1 19.5197 1 19.5185 1 19.5173C1 19.5161 1 19.5148 1 19.5136C1 19.5124 1 19.5111 1 19.5099C1 19.5087 1 19.5075 1 19.5062C1 19.505 1 19.5038 1 19.5025C1 19.5013 1 19.5001 1 19.4989C1 19.4976 1 19.4964 1 19.4952C1 19.494 1 19.4927 1 19.4915C1 19.4903 1 19.489 1 19.4878C1 19.4866 1 19.4854 1 19.4841C1 19.4829 1 19.4817 1 19.4805C1 19.4792 1 19.478 1 19.4768C1 19.4755 1 19.4743 1 19.4731C1 19.4719 1 19.4706 1 19.4694C1 19.4682 1 19.467 1 19.4657C1 19.4645 1 19.4633 1 19.4621C1 19.4608 1 19.4596 1 19.4584C1 19.4571 1 19.4559 1 19.4547C1 19.4535 1 19.4522 1 19.451C1 19.4498 1 19.4486 1 19.4473C1 19.4461 1 19.4449 1 19.4437C1 19.4424 1 19.4412 1 19.44C1 19.4387 1 19.4375 1 19.4363C1 19.4351 1 19.4338 1 19.4326C1 19.4314 1 19.4302 1 19.4289C1 19.4277 1 19.4265 1 19.4253C1 19.424 1 19.4228 1 19.4216C1 19.4204 1 19.4191 1 19.4179C1 19.4167 1 19.4155 1 19.4142C1 19.413 1 19.4118 1 19.4105C1 19.4093 1 19.4081 1 19.4069C1 19.4056 1 19.4044 1 19.4032C1 19.402 1 19.4007 1 19.3995C1 19.3983 1 19.3971 1 19.3958C1 19.3946 1 19.3934 1 19.3922C1 19.3909 1 19.3897 1 19.3885C1 19.3873 1 19.386 1 19.3848C1 19.3836 1 19.3824 1 19.3811C1 19.3799 1 19.3787 1 19.3775C1 19.3762 1 19.375 1 19.3738C1 19.3726 1 19.3713 1 19.3701C1 19.3689 1 19.3677 1 19.3664C1 19.3652 1 19.364 1 19.3628C1 19.3615 1 19.3603 1 19.3591C1 19.3579 1 19.3566 1 19.3554C1 19.3542 1 19.353 1 19.3517C1 19.3505 1 19.3493 1 19.3481C1 19.3468 1 19.3456 1 19.3444C1 19.3432 1 19.3419 1 19.3407C1 19.3395 1 19.3383 1 19.337C1 19.3358 1 19.3346 1 19.3334C1 19.3321 1 19.3309 1 19.3297C1 19.3285 1 19.3272 1 19.326C1 19.3248 1 19.3236 1 19.3223C1 19.3211 1 19.3199 1 19.3187C1 19.3174 1 19.3162 1 19.315C1 19.3138 1 19.3126 1 19.3113C1 19.3101 1 19.3089 1 19.3077C1 19.3064 1 19.3052 1 19.304C1 19.3028 1 19.3015 1 19.3003C1 19.2991 1 19.2979 1 19.2966C1 19.2954 1 19.2942 1 19.293C1 19.2917 1 19.2905 1 19.2893C1 19.2881 1 19.2868 1 19.2856C1 19.2844 1 19.2832 1 19.282C1 19.2807 1 19.2795 1 19.2783C1 19.2771 1 19.2758 1 19.2746C1 19.2734 1 19.2722 1 19.2709C1 19.2697 1 19.2685 1 19.2673C1 19.2661 1 19.2648 1 19.2636C1 19.2624 1 19.2612 1 19.2599C1 19.2587 1 19.2575 1 19.2563C1 19.255 1 19.2538 1 19.2526C1 19.2514 1 19.2501 1 19.2489C1 19.2477 1 19.2465 1 19.2453C1 19.244 1 19.2428 1 19.2416C1 19.2404 1 19.2391 1 19.2379C1 19.2367 1 19.2355 1 19.2343C1 19.233 1 19.2318 1 19.2306C1 19.2294 1 19.2281 1 19.2269C1 19.2257 1 19.2245 1 19.2232C1 19.222 1 19.2208 1 19.2196C1 19.2184 1 19.2171 1 19.2159C1 19.2147 1 19.2135 1 19.2122C1 19.211 1 19.2098 1 19.2086C1 19.2074 1 19.2061 1 19.2049C1 19.2037 1 19.2025 1 19.2012C1 19.2 1 19.1988 1 19.1976C1 19.1964 1 19.1951 1 19.1939C1 19.1927 1 19.1915 1 19.1902C1 19.189 1 19.1878 1 19.1866C1 19.1854 1 19.1841 1 19.1829C1 19.1817 1 19.1805 1 19.1792C1 19.178 1 19.1768 1 19.1756C1 19.1744 1 19.1731 1 19.1719C1 19.1707 1 19.1695 1 19.1682C1 19.167 1 19.1658 1 19.1646C1 19.1634 1 19.1621 1 19.1609C1 19.1597 1 19.1585 1 19.1573C1 19.156 1 19.1548 1 19.1536C1 19.1524 1 19.1511 1 19.1499C1 19.1487 1 19.1475 1 19.1463C1 19.145 1 19.1438 1 19.1426C1 19.1414 1 19.1402 1 19.1389C1 19.1377 1 19.1365 1 19.1353C1 19.134 1 19.1328 1 19.1316C1 19.1304 1 19.1292 1 19.1279C1 19.1267 1 19.1255 1 19.1243C1 19.1231 1 19.1218 1 19.1206C1 19.1194 1 19.1182 1 19.117C1 19.1157 1 19.1145 1 19.1133C1 19.1121 1 19.1108 1 19.1096C1 19.1084 1 19.1072 1 19.106C1 19.1047 1 19.1035 1 19.1023C1 19.1011 1 19.0999 1 19.0986C1 19.0974 1 19.0962 1 19.095C1 19.0938 1 19.0925 1 19.0913C1 19.0901 1 19.0889 1 19.0877C1 19.0864 1 19.0852 1 19.084C1 19.0828 1 19.0815 1 19.0803C1 19.0791 1 19.0779 1 19.0767C1 19.0754 1 19.0742 1 19.073C1 19.0718 1 19.0706 1 19.0693C1 19.0681 1 19.0669 1 19.0657C1 19.0645 1 19.0632 1 19.062C1 19.0608 1 19.0596 1 19.0584C1 19.0571 1 19.0559 1 19.0547C1 19.0535 1 19.0523 1 19.051C1 19.0498 1 19.0486 1 19.0474C1 19.0462 1 19.0449 1 19.0437C1 19.0425 1 19.0413 1 19.0401C1 19.0388 1 19.0376 1 19.0364C1 19.0352 1 19.034 1 19.0327C1 19.0315 1 19.0303 1 19.0291C1 19.0279 1 19.0266 1 19.0254C1 19.0242 1 19.023 1 19.0218C1 19.0205 1 19.0193 1 19.0181C1 19.0169 1 19.0157 1 19.0145C1 19.0132 1 19.012 1 19.0108C1 19.0096 1 19.0084 1 19.0071C1 19.0059 1 19.0047 1 19.0035C1 19.0023 1 19.001 1 18.9998C1 18.9986 1 18.9974 1 18.9962C1 18.9949 1 18.9937 1 18.9925C1 18.9913 1 18.9901 1 18.9888C1 18.9876 1 18.9864 1 18.9852C1 18.984 1 18.9827 1 18.9815C1 18.9803 1 18.9791 1 18.9779C1 18.9767 1 18.9754 1 18.9742C1 18.973 1 18.9718 1 18.9706C1 18.9693 1 18.9681 1 18.9669C1 18.9657 1 18.9645 1 18.9632C1 18.962 1 18.9608 1 18.9596C1 18.9584 1 18.9572 1 18.9559C1 18.9547 1 18.9535 1 18.9523C1 18.9511 1 18.9498 1 18.9486C1 18.9474 1 18.9462 1 18.945C1 18.9437 1 18.9425 1 18.9413C1 18.9401 1 18.9389 1 18.9377C1 18.9364 1 18.9352 1 18.934C1 18.9328 1 18.9316 1 18.9303C1 18.9291 1 18.9279 1 18.9267C1 18.9255 1 18.9243 1 18.923C1 18.9218 1 18.9206 1 18.9194C1 18.9182 1 18.9169 1 18.9157C1 18.9145 1 18.9133 1 18.9121C1 18.9109 1 18.9096 1 18.9084C1 18.9072 1 18.906 1 18.9048C1 18.9035 1 18.9023 1 18.9011C1 18.8999 1 18.8987 1 18.8975C1 18.8962 1 18.895 1 18.8938C1 18.8926 1 18.8914 1 18.8901C1 18.8889 1 18.8877 1 18.8865C1 18.8853 1 18.8841 1 18.8828C1 18.8816 1 18.8804 1 18.8792C1 18.878 1 18.8768 1 18.8755C1 18.8743 1 18.8731 1 18.8719C1 18.8707 1 18.8694 1 18.8682C1 18.867 1 18.8658 1 18.8646C1 18.8634 1 18.8621 1 18.8609C1 18.8597 1 18.8585 1 18.8573C1 18.8561 1 18.8548 1 18.8536C1 18.8524 1 18.8512 1 18.85C1 18.8487 1 18.8475 1 18.8463C1 18.8451 1 18.8439 1 18.8427C1 18.8414 1 18.8402 1 18.839C1 18.8378 1 18.8366 1 18.8354C1 18.8341 1 18.8329 1 18.8317C1 18.8305 1 18.8293 1 18.8281C1 18.8268 1 18.8256 1 18.8244C1 18.8232 1 18.822 1 18.8208C1 18.8195 1 18.8183 1 18.8171C1 18.8159 1 18.8147 1 18.8135C1 18.8122 1 18.811 1 18.8098C1 18.8086 1 18.8074 1 18.8061C1 18.8049 1 18.8037 1 18.8025C1 18.8013 1 18.8001 1 18.7988C1 18.7976 1 18.7964 1 18.7952C1 18.794 1 18.7928 1 18.7915C1 18.7903 1 18.7891 1 18.7879C1 18.7867 1 18.7855 1 18.7842C1 18.783 1 18.7818 1 18.7806C1 18.7794 1 18.7782 1 18.7769C1 18.7757 1 18.7745 1 18.7733C1 18.7721 1 18.7709 1 18.7697C1 18.7684 1 18.7672 1 18.766C1 18.7648 1 18.7636 1 18.7624C1 18.7611 1 18.7599 1 18.7587C1 18.7575 1 18.7563 1 18.7551C1 18.7538 1 18.7526 1 18.7514C1 18.7502 1 18.749 1 18.7478C1 18.7465 1 18.7453 1 18.7441C1 18.7429 1 18.7417 1 18.7405C1 18.7392 1 18.738 1 18.7368C1 18.7356 1 18.7344 1 18.7332C1 18.7319 1 18.7307 1 18.7295C1 18.7283 1 18.7271 1 18.7259C1 18.7247 1 18.7234 1 18.7222C1 18.721 1 18.7198 1 18.7186C1 18.7174 1 18.7161 1 18.7149C1 18.7137 1 18.7125 1 18.7113C1 18.7101 1 18.7088 1 18.7076C1 18.7064 1 18.7052 1 18.704C1 18.7028 1 18.7015 1 18.7003C1 18.6991 1 18.6979 1 18.6967C1 18.6955 1 18.6943 1 18.693C1 18.6918 1 18.6906 1 18.6894C1 18.6882 1 18.687 1 18.6857C1 18.6845 1 18.6833 1 18.6821C1 18.6809 1 18.6797 1 18.6785C1 18.6772 1 18.676 1 18.6748C1 18.6736 1 18.6724 1 18.6712C1 18.6699 1 18.6687 1 18.6675C1 18.6663 1 18.6651 1 18.6639C1 18.6627 1 18.6614 1 18.6602C1 18.659 1 18.6578 1 18.6566C1 18.6554 1 18.6541 1 18.6529C1 18.6517 1 18.6505 1 18.6493C1 18.6481 1 18.6469 1 18.6456C1 18.6444 1 18.6432 1 18.642C1 18.6408 1 18.6396 1 18.6383C1 18.6371 1 18.6359 1 18.6347C1 18.6335 1 18.6323 1 18.6311C1 18.6298 1 18.6286 1 18.6274C1 18.6262 1 18.625 1 18.6238C1 18.6226 1 18.6213 1 18.6201C1 18.6189 1 18.6177 1 18.6165C1 18.6153 1 18.614 1 18.6128C1 18.6116 1 18.6104 1 18.6092C1 18.608 1 18.6068 1 18.6055C1 18.6043 1 18.6031 1 18.6019C1 18.6007 1 18.5995 1 18.5983C1 18.597 1 18.5958 1 18.5946C1 18.5934 1 18.5922 1 18.591C1 18.5898 1 18.5885 1 18.5873C1 18.5861 1 18.5849 1 18.5837C1 18.5825 1 18.5813 1 18.58C1 18.5788 1 18.5776 1 18.5764C1 18.5752 1 18.574 1 18.5728C1 18.5715 1 18.5703 1 18.5691C1 18.5679 1 18.5667 1 18.5655C1 18.5642 1 18.563 1 18.5618C1 18.5606 1 18.5594 1 18.5582C1 18.557 1 18.5557 1 18.5545C1 18.5533 1 18.5521 1 18.5509C1 18.5497 1 18.5485 1 18.5472C1 18.546 1 18.5448 1 18.5436C1 18.5424 1 18.5412 1 18.54C1 18.5387 1 18.5375 1 18.5363C1 18.5351 1 18.5339 1 18.5327C1 18.5315 1 18.5303 1 18.529C1 18.5278 1 18.5266 1 18.5254C1 18.5242 1 18.523 1 18.5218C1 18.5205 1 18.5193 1 18.5181C1 18.5169 1 18.5157 1 18.5145C1 18.5133 1 18.512 1 18.5108C1 18.5096 1 18.5084 1 18.5072C1 18.506 1 18.5048 1 18.5035C1 18.5023 1 18.5011 1 18.4999C1 18.4987 1 18.4975 1 18.4963C1 18.495 1 18.4938 1 18.4926C1 18.4914 1 18.4902 1 18.489C1 18.4878 1 18.4865 1 18.4853C1 18.4841 1 18.4829 1 18.4817C1 18.4805 1 18.4793 1 18.4781C1 18.4768 1 18.4756 1 18.4744C1 18.4732 1 18.472 1 18.4708C1 18.4696 1 18.4683 1 18.4671C1 18.4659 1 18.4647 1 18.4635C1 18.4623 1 18.4611 1 18.4598C1 18.4586 1 18.4574 1 18.4562C1 18.455 1 18.4538 1 18.4526C1 18.4514 1 18.4501 1 18.4489C1 18.4477 1 18.4465 1 18.4453C1 18.4441 1 18.4429 1 18.4416C1 18.4404 1 18.4392 1 18.438C1 18.4368 1 18.4356 1 18.4344C1 18.4332 1 18.4319 1 18.4307C1 18.4295 1 18.4283 1 18.4271C1 18.4259 1 18.4247 1 18.4234C1 18.4222 1 18.421 1 18.4198C1 18.4186 1 18.4174 1 18.4162C1 18.415 1 18.4137 1 18.4125C1 18.4113 1 18.4101 1 18.4089C1 18.4077 1 18.4065 1 18.4052C1 18.404 1 18.4028 1 18.4016C1 18.4004 1 18.3992 1 18.398C1 18.3968 1 18.3955 1 18.3943C1 18.3931 1 18.3919 1 18.3907C1 18.3895 1 18.3883 1 18.3871C1 18.3858 1 18.3846 1 18.3834C1 18.3822 1 18.381 1 18.3798C1 18.3786 1 18.3773 1 18.3761C1 18.3749 1 18.3737 1 18.3725C1 18.3713 1 18.3701 1 18.3689C1 18.3676 1 18.3664 1 18.3652C1 18.364 1 18.3628 1 18.3616C1 18.3604 1 18.3592 1 18.3579C1 18.3567 1 18.3555 1 18.3543C1 18.3531 1 18.3519 1 18.3507C1 18.3495 1 18.3482 1 18.347C1 18.3458 1 18.3446 1 18.3434C1 18.3422 1 18.341 1 18.3398C1 18.3385 1 18.3373 1 18.3361C1 18.3349 1 18.3337 1 18.3325C1 18.3313 1 18.3301 1 18.3288C1 18.3276 1 18.3264 1 18.3252C1 18.324 1 18.3228 1 18.3216C1 18.3203 1 18.3191 1 18.3179C1 18.3167 1 18.3155 1 18.3143C1 18.3131 1 18.3119 1 18.3106C1 18.3094 1 18.3082 1 18.307C1 18.3058 1 18.3046 1 18.3034C1 18.3022 1 18.3009 1 18.2997C1 18.2985 1 18.2973 1 18.2961C1 18.2949 1 18.2937 1 18.2925C1 18.2912 1 18.29 1 18.2888C1 18.2876 1 18.2864 1 18.2852C1 18.284 1 18.2828 1 18.2816C1 18.2803 1 18.2791 1 18.2779C1 18.2767 1 18.2755 1 18.2743C1 18.2731 1 18.2719 1 18.2706C1 18.2694 1 18.2682 1 18.267C1 18.2658 1 18.2646 1 18.2634C1 18.2622 1 18.2609 1 18.2597C1 18.2585 1 18.2573 1 18.2561C1 18.2549 1 18.2537 1 18.2525C1 18.2512 1 18.25 1 18.2488C1 18.2476 1 18.2464 1 18.2452C1 18.244 1 18.2428 1 18.2415C1 18.2403 1 18.2391 1 18.2379C1 18.2367 1 18.2355 1 18.2343C1 18.2331 1 18.2318 1 18.2306C1 18.2294 1 18.2282 1 18.227C1 18.2258 1 18.2246 1 18.2234C1 18.2222 1 18.2209 1 18.2197C1 18.2185 1 18.2173 1 18.2161C1 18.2149 1 18.2137 1 18.2125C1 18.2112 1 18.21 1 18.2088C1 18.2076 1 18.2064 1 18.2052C1 18.204 1 18.2028 1 18.2015C1 18.2003 1 18.1991 1 18.1979C1 18.1967 1 18.1955 1 18.1943C1 18.1931 1 18.1919 1 18.1906C1 18.1894 1 18.1882 1 18.187C1 18.1858 1 18.1846 1 18.1834C1 18.1822 1 18.1809 1 18.1797C1 18.1785 1 18.1773 1 18.1761C1 18.1749 1 18.1737 1 18.1725C1 18.1713 1 18.17 1 18.1688C1 18.1676 1 18.1664 1 18.1652C1 18.164 1 18.1628 1 18.1616C1 18.1603 1 18.1591 1 18.1579C1 18.1567 1 18.1555 1 18.1543C1 18.1531 1 18.1519 1 18.1507C1 18.1494 1 18.1482 1 18.147C1 18.1458 1 18.1446 1 18.1434C1 18.1422 1 18.141 1 18.1397C1 18.1385 1 18.1373 1 18.1361C1 18.1349 1 18.1337 1 18.1325C1 18.1313 1 18.1301 1 18.1288C1 18.1276 1 18.1264 1 18.1252C1 18.124 1 18.1228 1 18.1216C1 18.1204 1 18.1191 1 18.1179C1 18.1167 1 18.1155 1 18.1143C1 18.1131 1 18.1119 1 18.1107C1 18.1095 1 18.1082 1 18.107C1 18.1058 1 18.1046 1 18.1034C1 18.1022 1 18.101 1 18.0998C1 18.0986 1 18.0973 1 18.0961C1 18.0949 1 18.0937 1 18.0925C1 18.0913 1 18.0901 1 18.0889C1 18.0876 1 18.0864 1 18.0852C1 18.084 1 18.0828 1 18.0816C1 18.0804 1 18.0792 1 18.078C1 18.0767 1 18.0755 1 18.0743C1 18.0731 1 18.0719 1 18.0707C1 18.0695 1 18.0683 1 18.0671C1 18.0658 1 18.0646 1 18.0634C1 18.0622 1 18.061 1 18.0598C1 18.0586 1 18.0574 1 18.0562C1 18.0549 1 18.0537 1 18.0525C1 18.0513 1 18.0501 1 18.0489C1 18.0477 1 18.0465 1 18.0453C1 18.044 1 18.0428 1 18.0416C1 18.0404 1 18.0392 1 18.038C1 18.0368 1 18.0356 1 18.0343C1 18.0331 1 18.0319 1 18.0307C1 18.0295 1 18.0283 1 18.0271C1 18.0259 1 18.0247 1 18.0234C1 18.0222 1 18.021 1 18.0198C1 18.0186 1 18.0174 1 18.0162C1 18.015 1 18.0138 1 18.0125C1 18.0113 1 18.0101 1 18.0089C1 18.0077 1 18.0065 1 18.0053C1 18.0041 1 18.0029 1 18.0016C1 18.0004 1 17.9992 1 17.998C1 17.9968 1 17.9956 1 17.9944C1 17.9932 1 17.992 1 17.9907C1 17.9895 1 17.9883 1 17.9871C1 17.9859 1 17.9847 1 17.9835C1 17.9823 1 17.9811 1 17.9798C1 17.9786 1 17.9774 1 17.9762C1 17.975 1 17.9738 1 17.9726C1 17.9714 1 17.9702 1 17.9689C1 17.9677 1 17.9665 1 17.9653C1 17.9641 1 17.9629 1 17.9617C1 17.9605 1 17.9593 1 17.958C1 17.9568 1 17.9556 1 17.9544C1 17.9532 1 17.952 1 17.9508C1 17.9496 1 17.9484 1 17.9471C1 17.9459 1 17.9447 1 17.9435C1 17.9423 1 17.9411 1 17.9399C1 17.9387 1 17.9375 1 17.9362C1 17.935 1 17.9338 1 17.9326C1 17.9314 1 17.9302 1 17.929C1 17.9278 1 17.9266 1 17.9253C1 17.9241 1 17.9229 1 17.9217C1 17.9205 1 17.9193 1 17.9181C1 17.9169 1 17.9157 1 17.9144C1 17.9132 1 17.912 1 17.9108C1 17.9096 1 17.9084 1 17.9072C1 17.906 1 17.9048 1 17.9035C1 17.9023 1 17.9011 1 17.8999C1 17.8987 1 17.8975 1 17.8963C1 17.8951 1 17.8939 1 17.8926C1 17.8914 1 17.8902 1 17.889C1 17.8878 1 17.8866 1 17.8854C1 17.8842 1 17.883 1 17.8817C1 17.8805 1 17.8793 1 17.8781C1 17.8769 1 17.8757 1 17.8745C1 17.8733 1 17.8721 1 17.8708C1 17.8696 1 17.8684 1 17.8672C1 17.866 1 17.8648 1 17.8636C1 17.8624 1 17.8612 1 17.8599C1 17.8587 1 17.8575 1 17.8563C1 17.8551 1 17.8539 1 17.8527C1 17.8515 1 17.8503 1 17.8491C1 17.8478 1 17.8466 1 17.8454C1 17.8442 1 17.843 1 17.8418C1 17.8406 1 17.8394 1 17.8382C1 17.8369 1 17.8357 1 17.8345C1 17.8333 1 17.8321 1 17.8309C1 17.8297 1 17.8285 1 17.8273C1 17.826 1 17.8248 1 17.8236C1 17.8224 1 17.8212 1 17.82C1 17.8188 1 17.8176 1 17.8164C1 17.8151 1 17.8139 1 17.8127C1 17.8115 1 17.8103 1 17.8091C1 17.8079 1 17.8067 1 17.8055C1 17.8042 1 17.803 1 17.8018C1 17.8006 1 17.7994 1 17.7982C1 17.797 1 17.7958 1 17.7946C1 17.7933 1 17.7921 1 17.7909C1 17.7897 1 17.7885 1 17.7873C1 17.7861 1 17.7849 1 17.7837C1 17.7824 1 17.7812 1 17.78H-1ZM-0.992646 19.7711C-0.968495 19.9691 -0.946639 20.1681 -0.924031 20.3741C-0.901639 20.5781 -0.878495 20.7891 -0.852646 21.0011L1.13265 20.759C1.1085 20.5609 1.08664 20.3619 1.06403 20.1559C1.04164 19.9519 1.0185 19.7409 0.992646 19.529L-0.992646 19.7711ZM-0.852504 21.0022C-0.506009 23.8162 0.38481 26.435 1.61408 28.9142L3.40592 28.0258C2.25519 25.705 1.44601 23.3039 1.1325 20.7578L-0.852504 21.0022ZM1.61475 28.9156C3.83262 33.372 6.93176 37.1135 10.6348 40.3254L11.9452 38.8146C8.40824 35.7466 5.48738 32.2081 3.40525 28.0245L1.61475 28.9156ZM10.6341 40.3249C14.5842 43.7571 18.9034 46.6833 23.6933 48.8791L24.5267 47.061C19.9366 44.9568 15.7758 42.1429 11.9459 38.8152L10.6341 40.3249ZM23.695 48.8798C26.0343 49.9469 28.473 50.7804 31.0753 51.188L31.3847 49.2121C29.007 48.8397 26.7457 48.0732 24.525 47.0602L23.695 48.8798ZM31.0779 51.1884C31.5381 51.2592 31.8379 51.2854 32.2139 51.3606L32.6061 49.3994C32.1821 49.3147 31.7019 49.2609 31.3821 49.2117L31.0779 51.1884Z" fill="white" mask="url(#path-4-inside-1)"/>
</g>
<defs>
<clipPath id="clip0">
<rect width="51.84" height="50.39" fill="white"/>
</clipPath>
</defs>
</svg>
