<?xml version="1.0" encoding="utf-8"?>
<!-- Generator: Adobe Illustrator 23.0.3, SVG Export Plug-In . SVG Version: 6.00 Build 0)  -->
<svg version="1.1" id="Layer_1" xmlns="http://www.w3.org/2000/svg" xmlns:xlink="http://www.w3.org/1999/xlink" x="0px" y="0px"
	 viewBox="0 0 16 16" style="enable-background:new 0 0 16 16;" xml:space="preserve">
<style type="text/css">
	.st0{fill:#71A665;}
</style>
<path class="st0" d="M7.5,2.2c0-0.1,0-0.2,0-0.3c0-0.3-0.1-0.5-0.3-0.7C7,1,7,1,6.9,0.9C6.8,0.8,6.6,0.7,6.5,0.7
	c-0.1,0-0.3-0.1-0.4-0.1C5.7,0.5,5.4,0.4,5.2,0.4c-0.1,0-0.2,0-0.3,0c-0.3,0-0.5,0-0.6,0.1c-0.1,0-0.1,0-0.1,0.1c0,0-0.1,0-0.1,0
	C4,0.6,4,0.6,3.9,0.7C3.9,0.7,3.8,0.8,3.8,0.9c0,0,0,0,0,0c0,0.1-0.1,0.2-0.1,0.3c0,0.1-0.1,0.2-0.1,0.4c0,0.1-0.1,0.2-0.1,0.3
	c0,0,0,0.1,0,0.1c0.3,0,0.9,0,1.2,0C5,2,5.4,2.1,5.8,2.2c0.3,0.1,0.5,0.1,0.6,0.2c0.2,0.1,0.6,0.3,0.7,0.4C7.2,2.9,7.3,3,7.3,3
	c0,0,0-0.1,0-0.1c0,0,0,0,0-0.1C7.4,2.6,7.5,2.4,7.5,2.2z M7.2,3.5C7.1,3.3,6.9,3.2,6.7,3.1C6.6,3,6.5,2.9,6.4,2.9
	C6.3,2.8,6.2,2.7,6.1,2.6C5.9,2.6,5.8,2.5,5.6,2.5C5.2,2.4,4.8,2.3,4.4,2.3c-0.4,0-0.7,0-1,0.1c-0.1,0-0.1,0-0.2,0c0,0-0.1,0-0.1,0
	C3.2,2.6,3.1,2.7,3.1,2.9h0.2c0.3,0,0.7,0,0.9,0C4.6,3,5,3.1,5.4,3.2C5.7,3.2,5.9,3.3,6,3.4c0.1,0,0.4,0.2,0.6,0.3
	c0.1,0,0.1,0.1,0.2,0.1C6.9,3.9,7,3.9,7,4c0,0,0,0,0,0v0c0-0.1,0.1-0.2,0.1-0.3C7.2,3.6,7.2,3.6,7.2,3.5z M6.8,4.7
	c0-0.1-0.1-0.2-0.2-0.4C6.5,4.2,6.3,4.1,6.2,4C6.1,3.9,6.1,3.9,6,3.8C5.9,3.8,5.8,3.7,5.6,3.6c-0.1,0-0.1,0-0.2-0.1
	c-0.1,0-0.1,0-0.2-0.1C5.1,3.5,5,3.5,4.9,3.4C4.5,3.4,4.3,3.3,4,3.3c-0.2,0-0.4,0-0.5,0h0c0,0-0.1,0-0.1,0c0,0-0.1,0-0.1,0
	c0,0-0.1,0-0.1,0C3.1,3.4,3,3.4,3,3.4c0,0,0,0-0.1,0.1C2.8,3.7,2.7,4.2,2.6,4.5C2.6,4.7,2.5,4.8,2.4,5c0,0.1-0.1,0.2-0.1,0.3
	c0,0.1,0,0.2-0.1,0.2c0,0,0,0.1-0.1,0.1v0l0,0v0c0.2,0.6,0.7,1.7,1.5,2.5c0,0,0.1,0,0.1,0c0.1,0,0.1,0,0.2,0c0,0,0.1,0,0.2,0
	c0.2,0,0.3,0,0.5,0c0.1,0,0.2,0,0.3,0c0,0,0,0,0.1,0c0.1,0,0.2,0,0.2,0c0.1,0,0.1,0,0.2,0c0.1,0,0.2,0.1,0.3,0.1
	c0-0.1,0.1-0.3,0.1-0.4L6,7.3c0-0.2,0.1-0.3,0.2-0.5c0-0.1,0-0.1,0.1-0.2c0-0.1,0.1-0.2,0.1-0.4c0-0.1,0.1-0.3,0.1-0.4l0-0.1
	c0-0.1,0-0.1,0.1-0.2c0-0.1,0.1-0.2,0.1-0.4C6.7,5,6.8,4.8,6.8,4.7z M6.2,8.9C6.2,8.8,6.2,8.8,6.2,8.9L6.2,8.9
	C6.2,8.8,6.1,8.8,6.1,8.8C6,8.8,6,8.7,5.9,8.7c0,0,0,0-0.1,0c0,0,0,0-0.1,0c0,0,0,0-0.1,0c-0.1,0-0.2-0.1-0.3-0.1
	c-0.1,0-0.1,0-0.2,0c-0.1,0-0.2,0-0.3-0.1c0,0,0,0,0,0c0,0,0,0-0.1,0c-0.1,0-0.2,0-0.2,0c-0.1,0-0.3,0-0.4,0c0,0-0.1,0-0.1,0
	c0,0,0.1,0.1,0.1,0.1c0,0,0,0.1,0.1,0.1c0,0.1,0,0.2,0,0.4c0,0,0,0.1,0,0.2C4.3,9.4,4.2,9.6,4.2,9.9C4.6,10,5,10.1,5.4,10.2
	c0,0,0.1,0,0.1,0v0c0,0,0,0,0.1,0c0.1,0,0.2,0,0.2,0.1h0c0,0,0,0,0.1,0c0,0,0.1,0,0.1,0c0.2,0,0.4,0.1,0.6,0.1c0.1,0,0.1,0,0.2,0
	c0,0,0.1,0,0.1,0c0.1-0.3,0.1-0.5-0.2-1.1c0-0.1-0.1-0.1-0.1-0.2C6.5,9,6.4,8.9,6.2,8.9z M6.5,10.7c-0.2,0-0.4,0-0.7-0.1
	c0,0,0,0-0.1,0c0,0,0,0-0.1,0c-0.1,0-0.1,0-0.2,0c0,0,0,0-0.1,0h0c0,0,0,0-0.1,0c-0.3-0.1-0.7-0.2-1.2-0.3C4,11,3.8,11.6,3.6,11.7
	c0.3,0.1,0.6,0.2,0.9,0.2c0.1,0,0.2,0,0.4,0c0,0,0,0,0.1,0H5c0.1,0,0.1,0,0.2,0c0,0,0,0,0.1,0h0c0,0,0,0,0.1,0
	c0.4-0.1,0.8-0.2,0.9-0.6C6.4,11.2,6.4,10.9,6.5,10.7z M4.7,12.3c-0.1,0-0.2,0-0.3,0c-0.6-0.1-1.3-0.3-1.6-0.7c0,0-0.1-0.1-0.1-0.1
	c-0.1-0.1-0.2-0.2-0.2-0.4C2.4,10.8,2.7,9.7,3,9C2.4,8.6,2,8,1.7,7.5c0,0,0,0,0,0c0,0,0,0,0,0c-0.2,0.7-0.4,1.4-0.5,2L1,10.6
	c-0.1,0.4-0.2,0.9-0.3,1.3c0.7-0.1,1.5,0,2.1,0.2c0.6,0.2,1.2,0.4,1.8,0.8l0,0L4.7,12.3z M4.3,13.1c-0.5-0.3-1-0.6-1.6-0.7
	c-0.6-0.2-1.4-0.2-2.1-0.1v0L1,13.4c0.5-0.1,0.9-0.1,1.4,0c0.4,0.1,0.7,0.3,1,0.5L4.3,13.1C4.2,13.1,4.3,13.1,4.3,13.1z M3.1,14.1
	c-0.3-0.2-0.5-0.3-0.8-0.4c-0.4-0.1-0.8-0.1-1.2,0l0.6,1.6v0L3.1,14.1L3.1,14.1z M3,9.8C3,9.9,3,9.9,3,10c0,0,0,0,0,0c0,0,0,0,0,0
	c-0.1,0.5-0.2,0.9-0.2,1c0,0.1,0.1,0.2,0.2,0.3c0.1,0.1,0.3,0.1,0.4,0.1c0.2-0.1,0.3-0.9,0.4-1.4c0,0,0,0,0-0.1c0,0,0-0.1,0-0.1
	c0-0.1,0-0.1,0-0.2C3.9,9.5,4,9.3,4,9.1c0-0.1,0-0.2,0-0.2c0-0.1,0-0.1,0-0.2C4,8.6,3.8,8.6,3.8,8.6c0,0-0.1,0-0.1,0c0,0,0,0,0,0
	c0,0-0.1,0.1-0.1,0.2L3.5,8.9h0h0c0,0.1-0.1,0.2-0.1,0.3C3.2,9.3,3.1,9.6,3,9.8C3,9.8,3,9.8,3,9.8z M1.9,7.1C2,7.5,2.5,8.2,3.2,8.7
	c0,0,0.1-0.1,0.1-0.1c0.1-0.1,0.1-0.1,0.2-0.2C2.8,7.7,2.3,6.9,2.1,6.2C2,6.5,1.9,6.8,1.9,7.1L1.9,7.1z M8,2.2c0,0.1,0,0.2,0,0.3
	C8,2.7,8,3,7.9,3.2c0,0.1-0.1,0.3-0.1,0.4c0,0.1,0,0.2-0.1,0.2c0,0.1,0,0.1-0.1,0.2c0,0.1-0.1,0.3-0.1,0.4c0,0,0,0,0,0
	c0,0,0,0.1-0.1,0.2c0,0,0,0.1,0,0.1c0,0.1-0.1,0.2-0.1,0.3C7.2,5.4,7.1,5.8,7,6c0,0.1,0,0.1,0,0.1c0,0.1,0,0.1,0,0.2
	c0,0.2-0.1,0.3-0.1,0.5C6.8,7,6.7,7.2,6.6,7.4C6.5,7.8,6.4,8.2,6.3,8.6C6.5,8.7,6.7,8.8,6.8,9c0.4,0.8,0.4,1.1,0.3,1.6
	c0,0.1-0.1,0.1-0.1,0.1c0,0-0.1,0-0.2,0c0,0.3-0.1,0.5-0.2,0.8c-0.2,0.5-0.7,0.7-1.3,0.8l0,0C5.1,12.8,5,13.1,5,13.2v0l0,0
	c0,0-1.3,1.1-1.8,1.5l-1.4,1.2c0,0,0,0,0,0L1.7,16c0,0-0.1,0-0.1,0c0,0,0,0,0,0l-0.3-0.4l-0.6-1.5c-0.1-0.2-0.1-0.4-0.2-0.6
	c-0.1-0.2-0.1-0.4-0.2-0.6c0-0.1-0.1-0.1-0.1-0.2c0,0,0-0.1-0.1-0.1c0-0.1-0.1-0.2-0.1-0.3c0-0.1,0-0.1,0-0.1c0-0.2,0.1-0.3,0.1-0.5
	c0,0,0-0.1,0-0.1c0,0,0-0.1,0-0.1l0-0.2l0-0.1c0-0.2,0.1-0.4,0.1-0.6c0.1-0.4,0.7-2.7,1.9-6.9c0.1-0.2,0.1-0.3,0.1-0.4c0,0,0,0,0,0
	C2.4,3,2.5,2.7,2.6,2.5c0-0.1,0-0.2,0.1-0.3c0.1-0.3,0.2-0.6,0.3-0.9C3,1,3.1,0.8,3.3,0.5c0-0.1,0.1-0.1,0.1-0.2
	c0.1-0.1,0.2-0.2,0.4-0.2C3.9,0.1,4,0,4.1,0c0.3,0,0.6,0,1,0c0.4,0,0.8,0.1,1.2,0.2c0.2,0.1,0.5,0.1,0.6,0.2
	c0.2,0.1,0.4,0.2,0.5,0.3c0,0,0.1,0.1,0.2,0.1v0C7.7,1,7.8,1.1,7.8,1.3v0c0,0.1,0.1,0.1,0.1,0.2c0,0,0,0.1,0,0.1c0,0.1,0,0.1,0,0.2
	v0C8,1.9,8,2.1,8,2.2z"/>
<rect y="15.3" class="st0" width="16" height="0.7"/>
</svg>
