<svg width="32" height="33" viewBox="0 0 32 33" fill="none" xmlns="http://www.w3.org/2000/svg">
<g clip-path="url(#clip0)">
<path d="M31.9255 6.93747C31.7873 5.36838 31.1959 3.97159 30.1771 2.77403C29.3099 1.75374 28.2691 0.984438 26.9808 0.524986C26.1817 0.239955 25.3854 0.0144828 24.5467 0.0123557C18.8879 -0.00111595 13.2284 -0.00253401 7.56961 0.00313824C6.56846 0.00455631 5.60347 0.216557 4.69307 0.649066C4.66258 0.663956 4.63139 0.678137 4.6009 0.693026C4.48391 0.710752 4.37613 0.747622 4.30169 0.847595C3.97908 1.03123 3.63661 1.18864 3.33669 1.40348C1.24931 2.89599 0.0751499 4.94296 0.0396984 7.49477C-0.0304957 12.4778 0.0127552 17.4623 0.0191365 22.4461C0.0205545 23.3913 -0.0460944 24.3392 0.0928757 25.2815C0.351672 27.0371 1.12381 28.5296 2.37879 29.7818C3.42036 30.8212 4.70583 31.4317 6.09057 31.8209C6.65567 31.9798 7.27891 31.9635 7.87591 31.9663C11.1942 31.9833 14.5132 31.9954 17.8321 31.9812C20.24 31.9706 22.6564 32.1343 25.0536 31.9025C27.8281 31.6338 29.8538 30.1526 31.1421 27.6759C31.1428 27.6235 31.1392 27.5696 31.1385 27.5164C31.1392 27.5696 31.1428 27.6235 31.1421 27.6759C31.2711 27.5469 31.3257 27.3753 31.3924 27.2137C31.7901 26.2565 31.9745 25.2518 31.9773 24.2215C31.9879 19.9092 31.9886 15.5969 31.9801 11.2845C31.9766 9.83457 32.0532 8.38319 31.9255 6.93747ZM26.2448 4.01271C27.2431 4.02051 28.0011 4.7969 28.0216 5.78458C28.0429 6.81552 27.0346 7.53731 26.2668 7.52597C25.306 7.51179 24.5055 6.72121 24.5091 5.76544C24.5133 4.68204 25.3472 4.02902 26.2448 4.01271ZM12.006 8.1017H12.0053C12.0053 8.1017 12.0053 8.1017 12.006 8.1017ZM11.9436 8.11163C11.9408 8.11234 11.9387 8.11375 11.9358 8.11517C11.9387 8.11375 11.9408 8.11234 11.9436 8.11163ZM11.9252 8.12014C11.9216 8.12226 11.9174 8.1251 11.9138 8.12793C11.9181 8.1251 11.9216 8.12226 11.9252 8.12014ZM17.2025 26.7634C15.6412 26.9449 14.1218 26.7514 12.6463 26.1969C10.622 25.4361 9.03801 24.1265 7.88726 22.3164C6.34582 19.8922 5.95727 17.2666 6.69963 14.4901C7.30869 12.2134 8.62181 10.4231 10.5284 9.05109C10.9503 8.74692 11.4111 8.51648 11.8585 8.25911C11.8649 8.19458 11.8834 8.15559 11.9089 8.13219C11.8826 8.15559 11.8642 8.19458 11.8585 8.2584C11.9684 8.23854 12.0755 8.21373 12.1485 8.11872L12.1542 8.12084C13.054 7.77838 13.9658 7.48272 14.9315 7.39267C16.3616 7.25866 17.747 7.37423 19.1339 7.83085C20.5619 8.30094 21.7949 9.03266 22.8585 10.065C24.3694 11.532 25.3266 13.2911 25.691 15.3856C25.9938 17.1291 25.8158 18.8074 25.2543 20.4686C25.1515 20.7721 25.0097 21.0515 24.8856 21.3415C24.4502 22.2448 23.878 23.0545 23.186 23.777C21.5489 25.4865 19.5537 26.4904 17.2025 26.7634Z" fill="#33475B"/>
<path d="M17.9726 10.2574C16.8289 9.94326 15.6732 9.88512 14.5168 10.2084C14.5323 10.2205 14.5522 10.2262 14.5735 10.2283C14.5522 10.2262 14.5331 10.2205 14.5168 10.2084C14.4792 10.2148 14.4423 10.2205 14.4054 10.2269C13.7652 10.3382 13.1746 10.5764 12.6286 10.9281L12.6222 10.9316C12.4606 10.977 12.3266 11.0699 12.2011 11.1777C10.1066 12.6425 8.98772 14.6406 9.03807 17.2087C9.08841 19.7697 10.2292 21.7848 12.4123 23.1157C15.4924 24.9932 19.4438 24.3444 21.8028 21.2403C22.3437 20.5284 22.6805 19.7244 22.901 18.865C23.1499 18.3765 23.145 17.8376 23.1641 17.3165C23.2832 14.0464 21.1299 11.1245 17.9726 10.2574ZM14.7259 10.2333C14.7132 10.2297 14.6997 10.229 14.6848 10.2283C14.6997 10.229 14.7132 10.2304 14.7259 10.2333Z" fill="#33475B"/>
</g>
<defs>
<clipPath id="clip0">
<rect width="32" height="32.0262" fill="white"/>
</clipPath>
</defs>
</svg>
