<svg width="213" height="106" viewBox="0 0 213 106" fill="none" xmlns="http://www.w3.org/2000/svg">
<path d="M145.414 26.7059L156.932 24.7582C154.95 34.0922 155.84 43.0383 155.675 52.0688C155.647 53.5106 156.106 53.7045 157.263 52.9035C159.236 51.5376 160.108 49.261 160.713 46.9422C162.118 41.5712 162.659 36.1074 162.457 30.6942C162.375 28.485 161.916 26.3602 161.604 24.0415L173.039 22.1022C170.919 29.2523 171.543 36.2507 170.708 43.2323C170.203 47.4482 169.35 51.5797 166.312 54.632C166.119 54.826 165.963 55.0789 165.807 55.315C165.752 55.3993 165.761 55.5342 165.724 55.7535C169.432 56.3606 170.873 59.5478 171.378 63.5529C171.8 66.934 172.084 70.3742 172.231 73.8228C172.433 78.4687 172.387 83.1399 172.562 87.7859C172.626 89.3963 173.011 90.9731 173.278 92.7016L161.778 93.0136C163.026 86.6644 162.778 80.3322 162.668 74.0167C162.622 71.3945 162.411 68.7384 161.906 66.2258C161.383 63.6541 159.025 62.2881 156.739 62.9205C156.326 63.0385 155.721 63.9407 155.721 64.4382C155.712 71.3439 155.748 78.2411 155.886 85.1383C155.941 87.7774 156.271 90.3997 156.492 93.1485L145.433 93.4436C145.635 90.5599 146.011 87.7015 146.02 84.8516C146.075 68.241 146.075 51.6388 146.02 35.0365C145.992 32.2794 145.625 29.5896 145.414 26.7059Z" fill="white"/>
<path d="M22.508 54.3538C23.7011 58.3927 20.9937 61.9509 15.9919 63.106C10.3018 64.4045 5.58447 62.2797 3.90497 57.305C1.28935 49.6067 4.49234 41.6556 12.5778 36.5206C14.7162 35.1378 17.1758 33.8899 19.5253 33.2996C26.4177 31.5796 33.3192 30.2389 40.2208 28.7633C40.5328 28.6959 40.8357 28.7465 41.1569 28.738C39.5416 36.3182 39.973 43.4937 39.973 50.7366C39.973 61.9762 40.1106 73.1989 39.8904 84.4469C39.8261 87.9546 39.3397 91.6477 38.1375 94.9614C35.3566 102.525 29.0424 105.746 21.1405 105.982C13.1376 106.218 6.14431 104.194 2.13369 97.5246C-2.23485 90.4504 0.334879 81.5127 7.74121 77.3979C11.6784 75.1382 15.7992 74.607 19.7455 76.4114C22.4988 77.7015 23.6919 80.0118 23.5909 83.0051C23.5359 84.4554 23.0128 84.8432 21.5076 84.2952C18.1303 83.081 15.2393 83.9747 13.3763 86.6223C11.449 89.3374 12.3484 93.1148 15.3219 94.8855C18.479 96.7995 22.8108 95.9732 25.1603 93.0389C27.0509 90.6443 27.1427 87.904 27.161 85.2311C27.2528 71.3018 27.1977 57.3893 27.2253 43.4684C27.2253 42.2458 26.8123 41.6893 25.4081 42.0181C23.8387 42.3807 22.2418 42.5578 20.6816 43.0131C17.9467 43.8057 16.0011 45.6269 15.2118 48.0721C14.4776 50.3319 14.4959 52.6843 16.4599 54.025C17.4419 54.708 19.0664 54.7248 20.4614 54.8682C21.0855 54.9356 21.838 54.5309 22.508 54.3538Z" fill="white"/>
<path d="M59.7783 54.32C59.6866 54.32 59.5948 54.32 59.503 54.32C59.4021 55.0704 59.3103 55.8292 59.2002 56.5797C58.6587 60.5005 58.108 64.4128 57.5757 68.3083C57.2453 70.6608 56.9884 73.0133 56.5845 75.3489C56.4285 76.2426 56.713 76.5125 57.6033 76.4281C58.8331 76.3185 60.0628 76.2089 61.2926 76.1499C62.2288 76.0993 62.6142 75.821 62.4766 74.8514C62.0177 71.7738 61.623 68.6877 61.2468 65.6101C60.9714 63.3335 60.8062 61.0401 60.5309 58.7719C60.3474 57.2795 60.0353 55.804 59.7783 54.32ZM77.0322 95.2648L63.6238 95.6274C64.7801 92.2209 64.2019 88.9325 64.0918 85.6525C64.0276 83.8144 63.6421 83.5699 61.6781 83.6879C60.0537 83.7807 58.4201 83.9071 56.7956 83.9662C55.7769 83.9999 55.263 84.3372 55.2079 85.349C55.1253 86.7908 54.7398 88.2327 54.7582 89.6576C54.7949 91.6981 55.0886 93.7302 55.2813 95.8634L42.2767 96.2176C42.7356 94.8601 43.2403 93.6037 43.5707 92.3137C44.3692 89.1096 45.1125 85.8802 45.8376 82.6424C46.3974 80.1213 46.9205 77.5917 47.4253 75.0538C47.9025 72.6423 48.3155 70.2139 48.7928 67.7855C49.2884 65.2644 49.8298 62.7433 50.3346 60.2138C50.8118 57.8107 51.2707 55.3908 51.7388 52.9709C52.2711 50.2305 52.8034 47.4902 53.3357 44.733C53.3632 44.5981 53.4091 44.4632 53.4366 44.3283C53.868 42.1613 53.868 42.1613 56.1807 41.7734C58.8422 41.3181 61.5037 40.8965 64.1652 40.3991C65.3124 40.1883 65.6704 40.6183 65.8447 41.5879C66.5514 45.5172 67.3499 49.4295 68.0932 53.384C68.5613 55.8798 68.9468 58.401 69.4332 60.9052C69.9104 63.4094 70.4794 65.8968 70.975 68.4095C71.4522 70.7957 71.8836 73.1988 72.3516 75.5934C72.8839 78.3169 73.3795 81.0488 73.9669 83.7722C74.5634 86.5463 75.2242 89.3119 75.9126 92.0776C76.1787 93.1062 76.6192 94.0843 77.0322 95.2648Z" fill="white"/>
<path d="M123.214 45.7281C123.122 45.7281 123.03 45.7281 122.938 45.7281C122.837 46.605 122.746 47.4903 122.645 48.3672C122.103 52.9288 121.562 57.482 121.02 62.0183C120.69 64.7586 120.433 67.499 120.029 70.2224C119.873 71.2764 120.176 71.5715 121.057 71.4872C122.287 71.3776 123.517 71.268 124.746 71.2089C125.692 71.1668 126.059 70.8211 125.921 69.7081C125.462 66.1161 125.068 62.5158 124.691 58.9154C124.416 56.2594 124.251 53.5781 123.966 50.9305C123.774 49.1767 123.471 47.4566 123.214 45.7281ZM140.22 93.5869L127.564 93.9242C127.564 90.0372 127.61 86.2681 127.546 82.5076C127.5 80.1635 127.123 79.8768 125.013 80.0033C123.388 80.0961 121.764 80.2225 120.13 80.2816C119.148 80.3153 118.717 80.7622 118.652 81.8414C118.552 83.5194 118.184 85.2057 118.203 86.8752C118.239 89.2614 118.524 91.6392 118.708 94.135L105.703 94.4891C106.171 92.8787 106.676 91.4453 106.988 89.9697C107.795 86.167 108.539 82.3389 109.273 78.494C109.824 75.6019 110.338 72.6929 110.842 69.7755C111.32 67.0015 111.742 64.2274 112.21 61.4365C112.724 58.3926 113.284 55.3487 113.798 52.288C114.266 49.5308 114.706 46.7736 115.165 43.9995C115.688 40.8123 116.22 37.6167 116.753 34.4126C116.789 34.2018 116.854 33.991 116.881 33.7802C117.23 31.4024 117.23 31.394 119.423 31.023C122.131 30.5592 124.847 30.1377 127.555 29.6233C128.674 29.4125 129.087 29.8594 129.271 31.0061C129.987 35.6436 130.804 40.2727 131.547 44.9355C132.015 47.895 132.382 50.9052 132.878 53.8647C133.557 57.9289 134.355 61.9761 135.044 66.0655C135.539 69.0082 135.906 72.0015 136.411 74.9527C136.907 77.8616 137.448 80.7622 138.045 83.6543C138.724 86.9005 139.467 90.1383 140.22 93.5869Z" fill="white"/>
<path d="M195.23 35.9556C195.139 35.964 195.047 35.964 194.955 35.9724C194.854 37.0095 194.762 38.0466 194.652 39.0753C194.12 44.185 193.578 49.2778 193.055 54.3622C192.706 57.7265 192.431 61.0908 192.037 64.4382C191.908 65.5174 192.128 65.939 192.973 65.8716C194.248 65.7704 195.533 65.6355 196.809 65.5933C197.809 65.5596 198.057 65.0284 197.929 63.8142C197.479 59.6995 197.084 55.5764 196.717 51.4532C196.442 48.3587 196.286 45.2474 196.001 42.1614C195.799 40.0703 195.487 38.0214 195.23 35.9556ZM178.077 92.457C178.995 87.3727 179.913 82.6087 180.711 77.8026C181.501 73.0808 182.207 68.3337 182.905 63.5697C183.391 60.2223 183.777 56.858 184.254 53.5021C184.74 50.1378 185.309 46.782 185.814 43.4093C186.301 40.1462 186.723 36.8746 187.191 33.6031C187.705 29.9606 188.246 26.3096 188.769 22.6586C188.778 22.5996 188.806 22.5406 188.815 22.4731C188.962 21.4444 188.87 19.8677 189.311 19.5136C190.155 18.8474 191.302 18.8221 192.321 18.6366C194.689 18.1982 197.057 17.8778 199.415 17.3972C200.663 17.1358 201.122 17.6754 201.306 19.2016C201.765 23.1139 202.389 26.9841 202.93 30.8881C203.398 34.2608 203.793 37.6672 204.279 41.0484C204.766 44.4885 205.335 47.9118 205.849 51.3689C206.326 54.5898 206.748 57.8276 207.216 61.057C207.739 64.7164 208.272 68.3843 208.822 72.0605C209.235 74.8177 209.621 77.5918 210.107 80.3321C210.759 84.0421 211.502 87.7268 212.236 91.5886L199.59 91.9343C199.59 87.5666 199.636 83.2579 199.571 78.9577C199.525 75.9897 199.204 75.7031 196.882 75.838C195.304 75.9307 193.725 76.0572 192.156 76.1078C191.174 76.1415 190.742 76.639 190.678 77.8953C190.577 79.8515 190.201 81.8077 190.229 83.747C190.265 86.5211 190.55 89.2951 190.733 92.1282L178.077 92.457Z" fill="white"/>
<path d="M104.794 43.7044C103.5 43.4346 102.289 43.0298 101.013 42.9708C99.4805 42.9034 97.8928 43.0636 96.3234 43.2912C95.9655 43.3418 95.6076 44.0585 95.2588 44.4801C95.213 44.5391 95.2497 44.674 95.2497 44.7752C95.2588 56.8327 95.1762 68.907 95.3231 80.956C95.369 84.666 95.9747 88.3423 96.3969 92.0354C96.4978 92.8955 96.9016 93.7049 97.2229 94.7083L84.0805 95.0624C86.4208 88.2411 85.7509 81.3439 85.7967 74.4804C85.861 65.1717 85.7876 55.8715 85.8426 46.5628C85.8518 45.1378 85.4113 44.6403 83.9979 45.0956C81.5108 45.8798 79.0329 46.6639 76.3071 47.5155C76.3071 46.841 76.3071 45.8292 76.3071 44.8174C76.3071 43.0551 76.3346 41.2929 76.2979 39.5391C76.2796 38.7212 76.5274 38.2996 77.4635 38.1478C86.2281 36.6807 95.0019 35.1798 103.766 33.6874C104.473 33.5694 105.061 33.5694 105.051 34.5137C105.033 37.3721 105.042 40.2305 105.024 43.0889C105.015 43.2575 104.886 43.4599 104.794 43.7044Z" fill="white"/>
<path d="M52.8675 21.5962C52.2526 21.6637 51.7478 21.5878 51.344 21.3602C50.9402 21.1325 50.6282 20.7952 50.4262 20.3568C50.2243 19.9183 50.1326 19.4208 50.1417 18.8643C50.1417 18.1645 50.3161 17.4478 50.674 16.7142C51.032 15.9891 51.5918 15.3567 52.3535 14.8087C53.1153 14.269 54.0881 13.9317 55.2628 13.8053C56.1347 13.7125 56.9515 13.6788 57.7133 13.721C58.475 13.7631 59.2092 13.8137 59.9067 13.8727C60.6042 13.9317 61.2925 13.9233 61.9809 13.8474C62.5774 13.78 63.1281 13.6451 63.6328 13.4427C64.1376 13.2403 64.6057 12.9031 65.0278 12.4478C65.2848 12.5995 65.4867 12.8188 65.6152 13.1223C65.7437 13.4258 65.8079 13.7631 65.8079 14.1341C65.8079 14.5304 65.7162 14.9436 65.5326 15.3567C65.349 15.7783 65.0645 16.1409 64.6791 16.436C64.2936 16.7395 63.8072 16.925 63.2107 16.9925C62.4581 17.0768 61.7606 17.0431 61.1365 16.8829C60.5124 16.7227 59.9434 16.5119 59.4295 16.2505C58.9155 15.9891 58.4291 15.7446 57.9794 15.5085L57.9335 15.3146C57.6123 15.2134 57.3186 15.1712 57.0617 15.1628C56.7955 15.1628 56.5202 15.1797 56.2357 15.2134C55.4831 15.2977 54.8774 15.6097 54.4277 16.1409C53.978 16.6721 53.7485 17.4225 53.7485 18.3753C53.7302 18.8138 53.7669 19.2185 53.8495 19.6063C53.9321 19.9942 54.0881 20.4074 54.3176 20.8374C54.1156 21.0735 53.877 21.2505 53.6017 21.3686C53.3355 21.4951 53.0878 21.571 52.8675 21.5962ZM55.6208 29.9859C55.1252 30.0449 54.6847 30.0112 54.29 29.8678C53.8954 29.7329 53.6751 29.5053 53.6109 29.2017C53.8311 29.0668 54.0055 28.9066 54.134 28.7043C54.2625 28.5019 54.3726 28.2405 54.446 27.9285C54.5286 27.6165 54.6021 27.2034 54.6755 26.7059L56.0888 19.0498C56.3366 17.6923 56.8414 16.6299 57.6031 15.8542C58.3649 15.0785 59.4754 14.5388 60.9254 14.2269L58.7412 26.2759C58.6127 27.0179 58.4291 27.6503 58.1997 28.173C57.9702 28.6958 57.649 29.1005 57.2452 29.4041C56.8414 29.7076 56.2999 29.9016 55.6208 29.9859Z" fill="white"/>
<path d="M62.66 29.0247L64.881 17.0431L68.0657 16.2843L67.7353 18.4428C68.0565 17.7092 68.497 17.1274 69.0569 16.689C69.6167 16.2505 70.2775 15.9891 71.03 15.9048C71.856 15.8121 72.4893 15.9554 72.9115 16.3433C73.3428 16.7311 73.5539 17.3045 73.5539 18.0887C73.5539 18.9656 73.2969 19.7244 72.7922 20.3652C72.2874 21.0061 71.6266 21.3771 70.8098 21.4698C70.5803 21.4951 70.3417 21.4951 70.1123 21.4614C69.8828 21.4277 69.6993 21.3518 69.5708 21.2169C69.8186 20.8796 70.0205 20.458 70.1673 19.9437C70.3234 19.4293 70.3968 18.9824 70.3968 18.603C70.3968 18.3416 70.3509 18.1224 70.2591 17.9538C70.1673 17.7851 69.9838 17.7177 69.7268 17.7514C69.479 17.7767 69.2496 17.8947 69.0385 18.0971C68.8274 18.2995 68.6439 18.5693 68.4787 18.8981C68.3226 19.2354 68.1758 19.6317 68.0381 20.087C67.9096 20.5423 67.7995 21.0398 67.7077 21.5879L66.6615 28.1309L62.66 29.0247Z" fill="white"/>
<path d="M76.6467 27.3383C75.995 27.4226 75.426 27.3805 74.9488 27.2203C74.4716 27.06 74.0953 26.7734 73.8383 26.3602C73.5722 25.9471 73.4437 25.399 73.4437 24.7244C73.4437 24.3619 73.4987 23.8307 73.5997 23.1477C73.7006 22.4647 73.8567 21.5372 74.0586 20.3652C74.2605 19.2016 74.5266 17.7176 74.8662 15.9216L78.7208 15.0869C78.4271 16.6805 78.1793 18.0212 77.9682 19.1089C77.7572 20.1966 77.592 21.0819 77.4635 21.7817C77.3442 22.4732 77.2524 23.0465 77.1881 23.485C77.1331 23.9234 77.1055 24.286 77.1055 24.5811C77.1055 24.8003 77.1239 25.0111 77.1698 25.2135C77.2157 25.4158 77.3075 25.5676 77.4451 25.6857C77.5828 25.8037 77.7847 25.8459 78.0417 25.8121C78.4638 25.7616 78.8126 25.5676 79.0879 25.2219C79.3632 24.8846 79.5835 24.4715 79.7487 23.9909C79.9139 23.5103 80.0332 23.0549 80.1066 22.6249L81.4099 15.1881L85.292 14.3533L83.6859 23.0212C83.6676 23.1561 83.6492 23.3079 83.6217 23.485C83.5941 23.662 83.5758 23.8138 83.5758 23.9487C83.5758 24.2101 83.6492 24.4378 83.796 24.6317C83.9429 24.8256 84.1723 24.9099 84.4935 24.8846C84.4109 25.2472 84.2274 25.5508 83.9612 25.8037C83.6951 26.0567 83.3831 26.2506 83.0435 26.3939C82.7039 26.5373 82.3643 26.63 82.0339 26.6722C81.5659 26.7312 81.1437 26.6806 80.7674 26.5204C80.3911 26.3602 80.1433 26.082 80.024 25.6688C79.6569 26.1241 79.1705 26.4951 78.5556 26.7818C77.9407 27.0769 77.2983 27.2624 76.6467 27.3383Z" fill="white"/>
<path d="M88.6146 29.7667C88.0364 29.8426 87.5684 29.7414 87.2196 29.4632C86.8709 29.1849 86.6965 28.7549 86.6965 28.1562C86.6965 27.7347 86.7975 27.3215 86.9994 26.9252C87.2013 26.5205 87.4766 26.141 87.8162 25.77C88.1557 25.399 88.5137 25.0618 88.8991 24.7582L87.2839 25.0196C87.2563 23.8307 87.2196 22.7768 87.1829 21.8493C87.1462 20.9218 87.1003 20.0617 87.0544 19.2776C86.9994 18.4934 86.9351 17.7514 86.8433 17.0516C86.7699 16.4192 86.669 15.947 86.5405 15.6266C86.412 15.3062 86.2101 15.087 85.9531 14.9521C86.2743 14.6401 86.6139 14.4124 86.9902 14.2606C87.3573 14.1089 87.7519 14.0077 88.1557 13.9655C88.7798 13.8981 89.2662 13.9487 89.6058 14.1257C89.9454 14.3028 90.1932 14.5979 90.34 15.0195C90.4868 15.4327 90.5786 15.9639 90.6245 16.6131C90.6429 16.7986 90.652 17.0769 90.6612 17.4563C90.6704 17.8273 90.6796 18.2405 90.6796 18.6873C90.6887 19.1342 90.6796 19.5727 90.6704 20.0111L90.652 22.7852C91.1752 22.0432 91.6432 21.2506 92.0562 20.4159C92.4692 19.5811 92.7996 18.7295 93.0382 17.861C93.2768 16.9925 93.3961 16.1578 93.3961 15.3568C93.3961 15.1713 93.387 14.9689 93.3778 14.7497C93.3594 14.5389 93.3227 14.3197 93.2493 14.1173C93.4696 13.8728 93.7357 13.6704 94.0569 13.4933C94.3781 13.3163 94.7361 13.2067 95.1491 13.1645C95.4703 13.1308 95.764 13.1561 96.0301 13.2404C96.2963 13.3247 96.5165 13.4849 96.6725 13.7294C96.8285 13.974 96.9111 14.3028 96.9111 14.716C96.9111 15.205 96.8102 15.7446 96.6083 16.3349C96.4064 16.9251 96.1311 17.549 95.7823 18.1899C95.4336 18.8391 95.0389 19.4799 94.5984 20.1376C94.1579 20.7869 93.699 21.4108 93.2218 22.001C92.7537 22.5913 92.2857 23.1225 91.8359 23.5946C91.3679 24.1006 90.9824 24.5812 90.6612 25.0533C90.34 25.5171 90.184 26.0736 90.184 26.7313C90.184 27.077 90.2758 27.4142 90.4593 27.7515C90.6429 28.0804 90.8723 28.3502 91.1476 28.5441C90.8172 28.8898 90.4226 29.1681 89.9821 29.3789C89.514 29.5812 89.0643 29.7077 88.6146 29.7667Z" fill="white"/>
<path d="M101.252 24.2944C100.362 24.404 99.5819 24.345 98.912 24.1089C98.2328 23.8728 97.7097 23.4596 97.3334 22.8525C96.9571 22.2455 96.7644 21.4276 96.7644 20.4073C96.7644 19.4714 96.9021 18.5523 97.1682 17.6417C97.4344 16.7311 97.8474 15.8879 98.4072 15.1122C98.967 14.3364 99.6829 13.6956 100.555 13.1728C101.427 12.6585 102.455 12.3297 103.648 12.1948C104.272 12.1273 104.85 12.1357 105.382 12.22C105.914 12.3128 106.346 12.5236 106.676 12.8609C107.007 13.1981 107.181 13.7209 107.181 14.4207C107.181 15.1459 106.97 15.8036 106.539 16.3769C106.107 16.9587 105.483 17.4393 104.666 17.8356C103.85 18.2319 102.849 18.527 101.665 18.7294C101.473 18.7547 101.28 18.7716 101.087 18.7969C100.894 18.8221 100.702 18.839 100.527 18.8643C100.509 19.0414 100.5 19.2184 100.481 19.3955C100.463 19.5726 100.463 19.7412 100.463 19.8846C100.463 20.5169 100.601 20.9891 100.876 21.3095C101.151 21.6299 101.629 21.748 102.317 21.6637C102.886 21.5962 103.446 21.4023 103.996 21.0987C104.547 20.7868 104.96 20.382 105.235 19.8761C105.437 19.9689 105.584 20.0869 105.658 20.2387C105.74 20.3905 105.777 20.5844 105.777 20.812C105.777 21.3854 105.566 21.9166 105.153 22.4057C104.74 22.9031 104.189 23.3079 103.492 23.6367C102.822 23.974 102.069 24.1932 101.252 24.2944ZM100.619 28.0297C100.041 28.1056 99.5452 28.0381 99.1506 27.8273C98.7468 27.6165 98.554 27.2624 98.554 26.7649C98.554 26.2506 98.7651 25.829 99.1873 25.5001C99.6095 25.1713 100.114 24.9774 100.711 24.9015C101.307 24.8256 101.794 24.9015 102.17 25.1207C102.546 25.3399 102.739 25.6941 102.739 26.2C102.739 26.7312 102.537 27.1443 102.124 27.4563C101.72 27.7599 101.216 27.9538 100.619 28.0297ZM100.445 11.3684L99.793 10.4325L103.409 7.5404L104.217 7.45609L107.089 9.63992L106.061 10.7361L103.574 9.79169L100.445 11.3684ZM100.665 17.8946C101.17 17.8356 101.638 17.7091 102.051 17.5152C102.464 17.3213 102.822 17.0768 103.134 16.7732C103.437 16.4697 103.675 16.124 103.831 15.7361C103.987 15.3482 104.07 14.9267 104.07 14.4629C104.07 14.0919 103.996 13.8137 103.859 13.6197C103.721 13.4258 103.492 13.3499 103.17 13.3836C102.895 13.4174 102.629 13.5354 102.363 13.7546C102.106 13.9739 101.867 14.269 101.656 14.6484C101.445 15.0278 101.252 15.4916 101.087 16.0312C100.922 16.5962 100.784 17.2117 100.665 17.8946Z" fill="white"/>
<path d="M116.469 22.4142C115.799 22.4985 115.257 22.3973 114.835 22.1191C114.413 21.8408 114.202 21.3518 114.202 20.6603C114.202 20.3484 114.248 19.9521 114.339 19.4715C114.431 18.9909 114.541 18.4849 114.67 17.9453C114.789 17.4057 114.918 16.866 115.037 16.3264C115.156 15.7868 115.266 15.2809 115.349 14.8171C115.441 14.3449 115.477 13.9571 115.477 13.6451C115.477 13.3163 115.413 13.0549 115.285 12.8525C115.156 12.6501 114.918 12.5658 114.587 12.5996C114.147 12.6501 113.789 12.8694 113.495 13.2572C113.201 13.6451 112.972 14.1088 112.788 14.64C112.605 15.1713 112.467 15.6856 112.366 16.1746L111.127 22.6418L107.227 23.5103L109.494 11.9672L112.678 11.2252L112.348 13.3078C112.742 12.5237 113.284 11.9334 113.972 11.5287C114.661 11.124 115.422 10.8795 116.248 10.7783C117.194 10.6687 117.937 10.7867 118.469 11.1156C119.011 11.4528 119.277 12.0515 119.277 12.9284C119.277 13.2994 119.231 13.7126 119.148 14.1932C119.066 14.6653 118.956 15.1713 118.836 15.7025C118.717 16.2337 118.589 16.748 118.478 17.2455C118.359 17.7429 118.258 18.2067 118.176 18.6367C118.084 19.0667 118.047 19.4209 118.047 19.6991C118.047 19.9942 118.121 20.2303 118.258 20.4158C118.396 20.5929 118.644 20.6772 118.992 20.6688C118.836 21.1831 118.506 21.5878 118.02 21.8745C117.515 22.1612 117.001 22.3467 116.469 22.4142Z" fill="white"/>
<path d="M126.885 21.1241C126.243 21.2 125.701 21.0988 125.242 20.8206C124.784 20.5423 124.554 20.0786 124.554 19.4293C124.554 19.1511 124.591 18.7801 124.664 18.3079C124.738 17.8441 124.82 17.3551 124.912 16.8408C125.004 16.3264 125.105 15.8289 125.206 15.3568C125.307 14.8846 125.38 14.4967 125.426 14.1932L126.078 11.0312L124.728 11.183L124.82 10.5422C125.637 10.1965 126.454 9.75804 127.271 9.23527C128.087 8.7125 128.877 8.11384 129.611 7.46459L130.565 7.35498L130.061 9.63157L131.759 9.43763L131.566 10.3989L129.886 10.5928L128.556 17.3298C128.528 17.5322 128.5 17.7177 128.464 17.8947C128.436 18.0718 128.409 18.2489 128.4 18.4175C128.4 18.8897 128.519 19.1932 128.748 19.3113C128.978 19.4293 129.317 19.4125 129.749 19.2607C129.556 19.6991 129.308 20.0533 129.005 20.3062C128.702 20.5592 128.363 20.7531 127.996 20.8712C127.638 20.9892 127.261 21.0735 126.885 21.1241Z" fill="white"/>
<path d="M130.823 20.593L133.043 9.29436L136.228 8.56079L135.898 10.6013C136.219 9.90988 136.659 9.36181 137.219 8.94022C137.779 8.52706 138.44 8.27411 139.192 8.18979C140.018 8.09704 140.652 8.23195 141.074 8.58608C141.505 8.94865 141.716 9.48829 141.716 10.2219C141.716 11.0482 141.459 11.7649 140.955 12.372C140.45 12.9791 139.789 13.3332 138.972 13.4259C138.743 13.4512 138.504 13.4512 138.275 13.4259C138.045 13.4006 137.862 13.3248 137.733 13.1983C137.981 12.8779 138.183 12.4731 138.33 11.9925C138.486 11.5119 138.559 11.0903 138.559 10.7278C138.559 10.4748 138.513 10.2724 138.422 10.1207C138.33 9.9689 138.146 9.90144 137.889 9.93517C137.641 9.96047 137.412 10.0701 137.201 10.264C136.99 10.4579 136.806 10.7109 136.641 11.0229C136.485 11.3433 136.338 11.7143 136.201 12.1443C136.072 12.5743 135.962 13.0465 135.87 13.5608L134.824 19.7329L130.823 20.593Z" fill="white"/>
<path d="M144.818 18.8981C144.02 18.9992 143.368 18.9065 142.854 18.6367C142.35 18.3584 141.973 17.9368 141.735 17.3635C141.496 16.7901 141.377 16.0987 141.377 15.2808C141.377 14.2437 141.542 13.2656 141.863 12.3297C142.194 11.4022 142.652 10.5674 143.249 9.82544C143.845 9.09187 144.534 8.48478 145.323 8.02947C146.103 7.56572 146.966 7.28747 147.893 7.17785C148.636 7.09354 149.398 7.14413 150.178 7.32963L153.298 6.60449L151.683 14.7918C151.665 14.9182 151.646 15.0616 151.619 15.2302C151.591 15.3989 151.573 15.5422 151.573 15.6687C151.573 15.9132 151.646 16.1324 151.802 16.3095C151.958 16.4866 152.197 16.5624 152.537 16.5372C152.417 16.8829 152.234 17.1695 151.968 17.4056C151.701 17.6417 151.408 17.8272 151.059 17.9706C150.719 18.1055 150.371 18.1982 150.022 18.2404C149.572 18.2994 149.159 18.2488 148.783 18.1055C148.407 17.9621 148.15 17.6923 148.021 17.3129C147.645 17.7176 147.186 18.0549 146.645 18.3331C146.112 18.6367 145.497 18.8137 144.818 18.8981ZM146.085 17.4394C146.525 17.3888 146.874 17.1948 147.14 16.866C147.406 16.5372 147.627 16.1493 147.783 15.7024C147.939 15.2555 148.058 14.8339 148.131 14.4208L149.178 8.69558C148.957 8.5691 148.737 8.48478 148.517 8.44262C148.287 8.40047 148.095 8.39203 147.92 8.4089C147.498 8.45949 147.131 8.66185 146.81 9.00756C146.489 9.36169 146.213 9.81701 145.993 10.3735C145.764 10.93 145.589 11.5287 145.452 12.1695C145.314 12.8103 145.213 13.4595 145.158 14.1004C145.103 14.7496 145.066 15.3314 145.066 15.8542C145.066 16.2842 145.13 16.6636 145.259 17.0009C145.387 17.355 145.663 17.4984 146.085 17.4394Z" fill="white"/>
<path d="M162.99 16.6468C162.32 16.7311 161.778 16.6383 161.356 16.3685C160.934 16.0987 160.723 15.635 160.723 14.9688C160.723 14.6737 160.769 14.2943 160.861 13.8305C160.952 13.3752 161.063 12.8862 161.191 12.3634C161.31 11.8491 161.439 11.3263 161.558 10.812C161.677 10.2976 161.788 9.80858 161.87 9.36169C161.962 8.91481 161.999 8.53538 161.999 8.24026C161.999 7.92829 161.934 7.67533 161.806 7.4814C161.677 7.28747 161.439 7.21159 161.108 7.24531C160.668 7.2959 160.31 7.5067 160.016 7.8777C159.723 8.2487 159.493 8.69558 159.31 9.20149C159.126 9.71583 158.988 10.2049 158.887 10.6771L157.648 16.8913L153.748 17.7429L156.015 6.66352L159.199 5.93838L158.869 7.93672C159.264 7.18629 159.805 6.61293 160.493 6.22506C161.182 5.8372 161.944 5.59268 162.77 5.49993C163.715 5.39032 164.458 5.49993 164.991 5.81191C165.532 6.13231 165.798 6.70568 165.798 7.54042C165.798 7.89456 165.752 8.29929 165.67 8.7546C165.587 9.20992 165.477 9.69053 165.358 10.1964C165.238 10.7024 165.11 11.1998 165 11.6804C164.88 12.1611 164.779 12.6079 164.697 13.0127C164.605 13.4258 164.568 13.7631 164.568 14.0329C164.568 14.3196 164.642 14.5473 164.779 14.7159C164.917 14.8845 165.165 14.9688 165.514 14.952C165.358 15.441 165.027 15.8289 164.541 16.1156C164.045 16.4107 163.531 16.5793 162.99 16.6468Z" fill="white"/>
<path d="M175.811 15.0616C175.141 15.1459 174.599 15.0532 174.177 14.7918C173.755 14.5304 173.544 14.0667 173.544 13.409C173.544 13.1139 173.59 12.7429 173.682 12.2875C173.774 11.8322 173.884 11.3516 174.012 10.8373C174.131 10.3229 174.26 9.81703 174.379 9.30269C174.499 8.78835 174.609 8.31617 174.691 7.86928C174.783 7.4224 174.82 7.0514 174.82 6.75629C174.82 6.44431 174.756 6.19979 174.627 6.00586C174.499 5.81192 174.26 5.73604 173.93 5.7782C173.489 5.82879 173.131 6.03958 172.837 6.41058C172.544 6.78158 172.314 7.22003 172.131 7.71751C171.947 8.22342 171.81 8.71246 171.709 9.17621L170.47 15.3146L166.569 16.1577L168.551 6.55392L171.975 5.98056C172.415 5.4072 172.948 4.96031 173.59 4.6399C174.232 4.3195 174.921 4.11713 175.664 4.03282C176.564 3.93163 177.289 4.03282 177.821 4.34479C178.362 4.65677 178.628 5.23013 178.628 6.05645C178.628 6.40215 178.583 6.80688 178.5 7.26219C178.417 7.71751 178.307 8.19812 178.188 8.68717C178.069 9.18464 177.94 9.66526 177.83 10.1459C177.711 10.618 177.61 11.0565 177.527 11.4612C177.435 11.866 177.399 12.2032 177.399 12.473C177.399 12.7513 177.472 12.979 177.61 13.1476C177.747 13.3162 177.995 13.3921 178.344 13.3752C178.188 13.8643 177.858 14.2437 177.371 14.5304C176.857 14.8255 176.343 14.9942 175.811 15.0616ZM171.865 6.68883L168.506 6.79001C168.634 6.20822 168.753 5.61799 168.863 5.0109C168.974 4.40381 169.065 3.81359 169.139 3.22336C169.212 2.63314 169.258 2.10193 169.295 1.62975C169.313 1.45268 169.313 1.29248 169.304 1.14071C169.295 0.997368 169.286 0.854027 169.267 0.719119C169.598 0.508324 169.937 0.34812 170.277 0.238506C170.616 0.128893 170.938 0.0530066 171.25 0.0192794C171.791 -0.0397432 172.241 0.036143 172.626 0.25537C173.003 0.466165 173.186 0.887754 173.168 1.50328C173.168 1.71407 173.149 1.96702 173.104 2.25371C173.058 2.54039 172.993 2.8608 172.911 3.19807C172.828 3.54377 172.727 3.90634 172.617 4.28577C172.507 4.6652 172.388 5.06149 172.268 5.47465C172.14 5.88781 172.011 6.29254 171.865 6.68883Z" fill="white"/>
</svg>
