<svg width="129" height="77" viewBox="0 0 129 77" fill="none" xmlns="http://www.w3.org/2000/svg">
<path d="M88.2735 19.3361L95.2654 17.9434C94.062 24.6173 94.6024 31.0139 94.5022 37.4708C94.4854 38.5017 94.764 38.6404 95.466 38.0676C96.6638 37.091 97.1931 35.4632 97.5608 33.8053C98.4132 29.9649 98.7419 26.0582 98.6193 22.1877C98.5692 20.6081 98.2906 19.0889 98.1012 17.4309L105.043 16.0443C103.756 21.1568 104.135 26.1607 103.628 31.1526C103.321 34.167 102.803 37.1211 100.959 39.3036C100.842 39.4422 100.748 39.6231 100.653 39.7919C100.619 39.8522 100.625 39.9486 100.603 40.1054C102.853 40.5395 103.728 42.8184 104.035 45.6821C104.291 48.0996 104.464 50.5594 104.553 53.0252C104.675 56.3471 104.647 59.687 104.753 63.0089C104.792 64.1604 105.026 65.2878 105.188 66.5237L98.207 66.7468C98.9647 62.2071 98.8143 57.6794 98.7474 53.1638C98.7196 51.2889 98.5914 49.3898 98.285 47.5932C97.9675 45.7544 96.5357 44.7777 95.1484 45.2299C94.8977 45.3143 94.53 45.9594 94.53 46.3151C94.5244 51.2527 94.5467 56.1843 94.6303 61.1159C94.6637 63.0029 94.8643 64.8779 94.998 66.8433L88.2846 67.0543C88.4072 64.9924 88.6356 62.9486 88.6412 60.9109C88.6746 49.0341 88.6746 37.1633 88.6412 25.2925C88.6245 23.3211 88.4016 21.3979 88.2735 19.3361Z" fill="url(#paint0_linear)"/>
<path d="M13.6634 39.1036C14.3877 41.9914 12.7442 44.5355 9.70783 45.3615C6.25366 46.2899 3.39004 44.7707 2.3705 41.2137C0.782697 35.7093 2.72706 30.0242 7.63533 26.3526C8.93343 25.3639 10.4265 24.4716 11.8528 24.0496C16.0368 22.8197 20.2264 21.8611 24.4159 20.8061C24.6054 20.7578 24.7892 20.794 24.9842 20.788C24.0037 26.2079 24.2655 31.3384 24.2655 36.5172C24.2655 44.5536 24.3491 52.578 24.2154 60.6205C24.1764 63.1285 23.8811 65.7691 23.1513 68.1384C21.4632 73.5463 17.6301 75.8493 12.8333 76.0181C7.97518 76.1869 3.72989 74.74 1.29525 69.9712C-1.35666 64.913 0.203288 58.5224 4.69928 55.5804C7.08935 53.9646 9.59084 53.5848 11.9865 54.875C13.6578 55.7974 14.3821 57.4493 14.3208 59.5895C14.2874 60.6265 13.9698 60.9038 13.0562 60.512C11.0059 59.6438 9.25099 60.2829 8.12003 62.1759C6.95007 64.1172 7.49605 66.8181 9.30113 68.0842C11.2176 69.4527 13.8473 68.8619 15.2735 66.7639C16.4212 65.0517 16.4769 63.0923 16.488 61.1812C16.5438 51.2215 16.5103 41.274 16.527 31.3203C16.527 30.4462 16.2763 30.0483 15.4239 30.2834C14.4713 30.5426 13.5019 30.6692 12.5547 30.9948C10.8945 31.5615 9.71341 32.8637 9.23428 34.6121C8.78858 36.2278 8.79972 37.9099 9.99197 38.8684C10.5881 39.3568 11.5742 39.3688 12.421 39.4713C12.7999 39.5196 13.2567 39.2302 13.6634 39.1036Z" fill="url(#paint1_linear)"/>
<path d="M36.2882 39.0794C36.2325 39.0794 36.1768 39.0794 36.1211 39.0794C36.0598 39.616 36.0041 40.1586 35.9372 40.6952C35.6085 43.4986 35.2743 46.296 34.9511 49.0813C34.7506 50.7633 34.5946 52.4454 34.3494 54.1154C34.2547 54.7544 34.4274 54.9473 34.9678 54.887C35.7144 54.8087 36.4609 54.7303 37.2075 54.6881C37.7757 54.6519 38.0097 54.453 37.9262 53.7596C37.6476 51.5591 37.408 49.3526 37.1796 47.152C37.0125 45.5243 36.9122 43.8844 36.7451 42.2627C36.6336 41.1956 36.4442 40.1405 36.2882 39.0794ZM46.7621 68.3555L38.6226 68.6147C39.3245 66.1791 38.9736 63.8278 38.9067 61.4826C38.8677 60.1683 38.6337 59.9935 37.4415 60.0779C36.4554 60.1442 35.4637 60.2346 34.4776 60.2768C33.8592 60.3009 33.5472 60.5421 33.5137 61.2656C33.4636 62.2965 33.2296 63.3274 33.2408 64.3463C33.263 65.8053 33.4413 67.2582 33.5583 68.7835L25.6639 69.0367C25.9424 68.0661 26.2489 67.1678 26.4494 66.2454C26.9341 63.9544 27.3854 61.6454 27.8255 59.3303C28.1654 57.5277 28.4829 55.719 28.7893 53.9043C29.079 52.1801 29.3298 50.4438 29.6195 48.7075C29.9203 46.9049 30.249 45.1022 30.5554 43.2936C30.8451 41.5754 31.1237 39.8451 31.4078 38.1148C31.731 36.1555 32.0541 34.1961 32.3772 32.2247C32.3939 32.1282 32.4218 32.0317 32.4385 31.9353C32.7003 30.3859 32.7003 30.3859 34.1043 30.1085C35.72 29.783 37.3356 29.4815 38.9513 29.1258C39.6477 28.9751 39.865 29.2826 39.9708 29.9759C40.3998 32.7853 40.8845 35.5827 41.3358 38.4102C41.6199 40.1948 41.8539 41.9974 42.1492 43.788C42.4389 45.5785 42.7843 47.357 43.0851 49.1536C43.3748 50.8598 43.6367 52.578 43.9208 54.2902C44.2439 56.2375 44.5448 58.1908 44.9014 60.1382C45.2635 62.1216 45.6646 64.0991 46.0825 66.0766C46.244 66.8121 46.5114 67.5114 46.7621 68.3555Z" fill="url(#paint2_linear)"/>
<path d="M74.7967 32.9361C74.741 32.9361 74.6853 32.9361 74.6295 32.9361C74.5683 33.5631 74.5125 34.1961 74.4513 34.8231C74.1226 38.0847 73.7938 41.3403 73.4651 44.5838C73.2646 46.5431 73.1086 48.5025 72.8635 50.4498C72.7687 51.2034 72.9526 51.4144 73.4874 51.3542C74.234 51.2758 74.9805 51.1974 75.7271 51.1552C76.3009 51.1251 76.5238 50.8779 76.4402 50.0821C76.1616 47.5138 75.9221 44.9395 75.6936 42.3652C75.5265 40.4661 75.4262 38.5489 75.2535 36.6559C75.1365 35.4019 74.9527 34.172 74.7967 32.9361ZM85.1202 67.1557L77.4374 67.3969C77.4374 64.6176 77.4653 61.9227 77.4263 59.2338C77.3984 57.5578 77.17 57.3528 75.8886 57.4433C74.9025 57.5096 73.9164 57.6 72.9247 57.6422C72.3286 57.6663 72.0668 57.9859 72.0278 58.7576C71.9665 59.9573 71.7436 61.1631 71.7548 62.3568C71.7771 64.0629 71.9498 65.7631 72.0612 67.5476L64.1667 67.8008C64.4509 66.6493 64.7573 65.6244 64.9467 64.5694C65.437 61.8504 65.8883 59.1133 66.334 56.3641C66.6682 54.2962 66.9802 52.2163 67.2866 50.1303C67.5763 48.1468 67.8326 46.1633 68.1168 44.1678C68.4287 41.9914 68.7686 39.815 69.0806 37.6265C69.3647 35.6551 69.6321 33.6836 69.9107 31.7002C70.2283 29.4213 70.5514 27.1363 70.8745 24.8454C70.8968 24.6947 70.9358 24.5439 70.9525 24.3932C71.1642 22.6931 71.1642 22.6871 72.4958 22.4218C74.1393 22.0902 75.7884 21.7888 77.4319 21.421C78.1116 21.2703 78.3623 21.5898 78.4737 22.4097C78.9082 25.7256 79.4041 29.0354 79.8554 32.3694C80.1395 34.4855 80.3623 36.6378 80.6632 38.7539C81.0755 41.6598 81.5602 44.5536 81.978 47.4776C82.2788 49.5817 82.5017 51.7219 82.8081 53.832C83.109 55.912 83.4377 57.9859 83.7998 60.0538C84.2121 62.3749 84.6633 64.6899 85.1202 67.1557Z" fill="url(#paint3_linear)"/>
<path d="M118.514 25.9486C118.458 25.9547 118.403 25.9547 118.347 25.9607C118.286 26.7023 118.23 27.4438 118.163 28.1793C117.84 31.8328 117.511 35.4742 117.194 39.1096C116.982 41.5151 116.815 43.9206 116.575 46.314C116.497 47.0857 116.631 47.3872 117.144 47.339C117.918 47.2666 118.698 47.1701 119.472 47.14C120.08 47.1159 120.23 46.7361 120.152 45.8679C119.879 42.9258 119.64 39.9777 119.417 37.0296C119.25 34.8171 119.155 32.5924 118.982 30.3859C118.86 28.8907 118.67 27.4257 118.514 25.9486ZM108.102 66.3479C108.659 62.7125 109.216 59.3062 109.7 55.8698C110.18 52.4936 110.609 49.0994 111.032 45.6931C111.327 43.2996 111.561 40.8941 111.851 38.4947C112.146 36.0891 112.492 33.6897 112.798 31.2781C113.093 28.945 113.35 26.6058 113.634 24.2666C113.946 21.6621 114.274 19.0517 114.592 16.4412C114.598 16.399 114.614 16.3568 114.62 16.3085C114.709 15.573 114.653 14.4456 114.921 14.1924C115.433 13.7161 116.13 13.6981 116.748 13.5654C118.185 13.2519 119.623 13.0228 121.055 12.6792C121.812 12.4923 122.091 12.8781 122.202 13.9694C122.481 16.7667 122.86 19.534 123.188 22.3253C123.473 24.7369 123.712 27.1725 124.007 29.5901C124.303 32.0498 124.648 34.4975 124.96 36.9694C125.25 39.2724 125.506 41.5874 125.79 43.8965C126.108 46.513 126.431 49.1355 126.765 51.7641C127.016 53.7355 127.25 55.719 127.545 57.6784C127.941 60.3311 128.392 62.9657 128.838 65.7269L121.161 65.9741C121.161 62.8511 121.188 59.7704 121.149 56.6957C121.122 54.5736 120.927 54.3686 119.517 54.465C118.559 54.5314 117.601 54.6218 116.648 54.658C116.052 54.6821 115.79 55.0378 115.751 55.9361C115.69 57.3348 115.461 58.7334 115.478 60.1201C115.5 62.1036 115.673 64.0871 115.784 66.1127L108.102 66.3479Z" fill="url(#paint4_linear)"/>
<path d="M63.6152 31.4891C62.8296 31.2962 62.0942 31.0068 61.3198 30.9646C60.3894 30.9164 59.4256 31.0309 58.4729 31.1937C58.2556 31.2299 58.0384 31.7423 57.8267 32.0438C57.7988 32.086 57.8211 32.1824 57.8211 32.2548C57.8267 40.876 57.7765 49.5093 57.8657 58.1245C57.8935 60.7772 58.2612 63.4058 58.5175 66.0464C58.5788 66.6613 58.8239 67.2401 59.0189 67.9575L51.0409 68.2108C52.4616 63.3334 52.0549 58.4018 52.0827 53.4944C52.1217 46.8385 52.0771 40.1887 52.1106 33.5329C52.1161 32.514 51.8487 32.1583 50.9908 32.4839C49.4809 33.0446 47.9767 33.6053 46.3221 34.2142C46.3221 33.7319 46.3221 33.0084 46.3221 32.2849C46.3221 31.0249 46.3388 29.7649 46.3165 28.5109C46.3053 27.9261 46.4558 27.6247 47.024 27.5161C52.3446 26.4671 57.6707 25.394 62.9912 24.3269C63.4202 24.2425 63.7767 24.2425 63.7712 24.9177C63.76 26.9615 63.7656 29.0053 63.7545 31.049C63.7489 31.1696 63.6709 31.3143 63.6152 31.4891Z" fill="url(#paint5_linear)"/>
<path d="M32.0932 15.6815C31.7199 15.7298 31.4135 15.6755 31.1683 15.5127C30.9232 15.35 30.7338 15.1088 30.6112 14.7953C30.4886 14.4818 30.4329 14.1261 30.4385 13.7282C30.4385 13.2278 30.5443 12.7154 30.7616 12.1908C30.9789 11.6724 31.3187 11.2202 31.7812 10.8283C32.2436 10.4425 32.8341 10.2013 33.5472 10.1109C34.0765 10.0446 34.5724 10.0205 35.0348 10.0506C35.4972 10.0808 35.9429 10.1169 36.3663 10.1591C36.7897 10.2013 37.2076 10.1953 37.6254 10.141C37.9875 10.0928 38.3218 9.99635 38.6282 9.85166C38.9346 9.70697 39.2188 9.46582 39.4751 9.14026C39.631 9.24878 39.7536 9.40553 39.8316 9.62257C39.9096 9.8396 39.9486 10.0808 39.9486 10.346C39.9486 10.6294 39.8929 10.9248 39.7815 11.2202C39.67 11.5216 39.4973 11.7809 39.2633 11.9919C39.0294 12.2089 38.7341 12.3416 38.3719 12.3898C37.9151 12.4501 37.4917 12.426 37.1128 12.3114C36.734 12.1969 36.3886 12.0462 36.0766 11.8593C35.7646 11.6724 35.4693 11.4975 35.1963 11.3287L35.1685 11.1901C34.9735 11.1177 34.7952 11.0876 34.6392 11.0815C34.4776 11.0815 34.3105 11.0936 34.1378 11.1177C33.681 11.178 33.3133 11.4011 33.0403 11.7809C32.7673 12.1607 32.628 12.6973 32.628 13.3785C32.6168 13.692 32.6391 13.9814 32.6893 14.2587C32.7394 14.5361 32.8341 14.8315 32.9734 15.139C32.8508 15.3078 32.706 15.4344 32.5389 15.5188C32.3773 15.6092 32.2269 15.6635 32.0932 15.6815ZM33.7645 21.6802C33.4637 21.7224 33.1963 21.6983 32.9567 21.5958C32.7171 21.4994 32.5834 21.3366 32.5444 21.1196C32.6781 21.0231 32.784 20.9085 32.862 20.7639C32.94 20.6192 33.0068 20.4323 33.0514 20.2092C33.1015 19.9861 33.1461 19.6907 33.1907 19.335L34.0487 13.8608C34.1991 12.8902 34.5055 12.1306 34.9679 11.5759C35.4303 11.0213 36.1044 10.6354 36.9847 10.4123L35.6587 19.0276C35.5808 19.5581 35.4693 20.0103 35.33 20.384C35.1908 20.7578 34.9958 21.0472 34.7506 21.2642C34.5055 21.4813 34.1768 21.62 33.7645 21.6802Z" fill="url(#paint6_linear)"/>
<path d="M38.0377 20.9929L39.3859 12.4259L41.3191 11.8834L41.1186 13.4267C41.3136 12.9022 41.581 12.4862 41.9208 12.1727C42.2607 11.8592 42.6618 11.6723 43.1187 11.6121C43.6201 11.5457 44.0045 11.6482 44.2608 11.9256C44.5226 12.2029 44.6508 12.6128 44.6508 13.1735C44.6508 13.8005 44.4948 14.3431 44.1883 14.8013C43.8819 15.2595 43.4808 15.5248 42.9849 15.5911C42.8457 15.6092 42.7008 15.6092 42.5615 15.5851C42.4222 15.5609 42.3108 15.5067 42.2328 15.4102C42.3832 15.1691 42.5058 14.8676 42.595 14.4999C42.6897 14.1321 42.7342 13.8126 42.7342 13.5413C42.7342 13.3544 42.7064 13.1976 42.6507 13.0771C42.595 12.9565 42.4835 12.9083 42.3275 12.9324C42.1771 12.9505 42.0378 13.0349 41.9097 13.1796C41.7816 13.3242 41.6701 13.5172 41.5698 13.7523C41.4751 13.9934 41.386 14.2768 41.3024 14.6024C41.2244 14.9279 41.1576 15.2836 41.1019 15.6755L40.4667 20.3539L38.0377 20.9929Z" fill="url(#paint7_linear)"/>
<path d="M46.5282 19.7872C46.1327 19.8475 45.7873 19.8173 45.4975 19.7028C45.2078 19.5882 44.9794 19.3832 44.8234 19.0878C44.6619 18.7924 44.5839 18.4005 44.5839 17.9182C44.5839 17.659 44.6173 17.2792 44.6786 16.7909C44.7399 16.3025 44.8346 15.6393 44.9571 14.8013C45.0797 13.9694 45.2413 12.9083 45.4474 11.6241L47.7873 11.0273C47.6091 12.1667 47.4586 13.1253 47.3305 13.903C47.2024 14.6808 47.1021 15.3138 47.0241 15.8142C46.9517 16.3085 46.8959 16.7185 46.8569 17.032C46.8235 17.3455 46.8068 17.6047 46.8068 17.8158C46.8068 17.9725 46.8179 18.1232 46.8458 18.2679C46.8737 18.4126 46.9294 18.5211 47.0129 18.6055C47.0965 18.6899 47.2191 18.7201 47.3751 18.696C47.6313 18.6598 47.8431 18.5211 48.0102 18.2739C48.1773 18.0328 48.311 17.7374 48.4113 17.3937C48.5116 17.0501 48.584 16.7245 48.6286 16.4171L49.4197 11.0996L51.7764 10.5028L50.8014 16.7004C50.7903 16.7969 50.7791 16.9054 50.7624 17.032C50.7457 17.1586 50.7345 17.2671 50.7345 17.3636C50.7345 17.5505 50.7791 17.7133 50.8682 17.8519C50.9574 17.9906 51.0967 18.0509 51.2917 18.0328C51.2415 18.292 51.1301 18.5091 50.9685 18.6899C50.807 18.8708 50.6175 19.0095 50.4114 19.112C50.2053 19.2144 49.9991 19.2808 49.7986 19.3109C49.5144 19.3531 49.2582 19.3169 49.0297 19.2024C48.8013 19.0878 48.6509 18.8889 48.5785 18.5935C48.3556 18.919 48.0603 19.1843 47.6871 19.3893C47.3138 19.6003 46.9238 19.7329 46.5282 19.7872Z" fill="url(#paint8_linear)"/>
<path d="M53.7931 21.5234C53.4422 21.5777 53.158 21.5054 52.9463 21.3064C52.7346 21.1075 52.6288 20.8 52.6288 20.3719C52.6288 20.0705 52.69 19.7751 52.8126 19.4917C52.9352 19.2023 53.1023 18.931 53.3084 18.6658C53.5146 18.4005 53.7319 18.1594 53.9659 17.9423L52.9853 18.1292C52.9686 17.2791 52.9463 16.5255 52.924 15.8624C52.9017 15.1992 52.8739 14.5843 52.846 14.0236C52.8126 13.4629 52.7736 12.9324 52.7179 12.432C52.6733 11.9798 52.612 11.6422 52.534 11.4131C52.4561 11.184 52.3335 11.0272 52.1775 10.9308C52.3725 10.7077 52.5786 10.5449 52.807 10.4364C53.0299 10.3279 53.2694 10.2556 53.5146 10.2254C53.8934 10.1772 54.1887 10.2134 54.3948 10.34C54.601 10.4666 54.7514 10.6776 54.8405 10.979C54.9297 11.2744 54.9854 11.6542 55.0132 12.1185C55.0244 12.2511 55.03 12.45 55.0355 12.7213C55.0411 12.9866 55.0467 13.282 55.0467 13.6016C55.0522 13.9211 55.0467 14.2346 55.0411 14.5481L55.03 16.5316C55.3475 16.001 55.6316 15.4343 55.8824 14.8375C56.1331 14.2406 56.3336 13.6317 56.4785 13.0107C56.6233 12.3898 56.6957 11.7929 56.6957 11.2202C56.6957 11.0875 56.6902 10.9428 56.6846 10.7861C56.6735 10.6354 56.6512 10.4786 56.6066 10.3339C56.7403 10.1591 56.9019 10.0144 57.0969 9.88779C57.2919 9.76119 57.5091 9.68281 57.7599 9.65267C57.9548 9.62855 58.1331 9.64664 58.2947 9.70693C58.4563 9.76722 58.59 9.88177 58.6847 10.0566C58.7794 10.2314 58.8295 10.4666 58.8295 10.762C58.8295 11.1116 58.7682 11.4975 58.6457 11.9195C58.5231 12.3415 58.356 12.7877 58.1443 13.2459C57.9326 13.7101 57.693 14.1683 57.4256 14.6385C57.1582 15.1027 56.8796 15.5489 56.5899 15.9709C56.3058 16.3929 56.0216 16.7727 55.7486 17.1103C55.4645 17.4721 55.2305 17.8157 55.0355 18.1533C54.8405 18.4849 54.7458 18.8828 54.7458 19.3531C54.7458 19.6002 54.8015 19.8414 54.913 20.0826C55.0244 20.3177 55.1637 20.5106 55.3308 20.6493C55.1302 20.8964 54.8907 21.0954 54.6233 21.2461C54.3391 21.3908 54.0661 21.4812 53.7931 21.5234Z" fill="url(#paint9_linear)"/>
<path d="M61.4648 17.6124C60.9243 17.6907 60.4508 17.6485 60.0441 17.4797C59.6318 17.3109 59.3143 17.0155 59.0858 16.5814C58.8574 16.1474 58.7404 15.5626 58.7404 14.8331C58.7404 14.1639 58.824 13.5067 58.9855 12.8556C59.1471 12.2045 59.3978 11.6016 59.7377 11.047C60.0775 10.4923 60.5121 10.0341 61.0413 9.66033C61.5706 9.29257 62.1946 9.05745 62.9189 8.96099C63.2977 8.91276 63.6487 8.91879 63.9718 8.97908C64.295 9.04539 64.5568 9.19611 64.7574 9.43727C64.9579 9.67842 65.0638 10.0522 65.0638 10.5526C65.0638 11.0711 64.9356 11.5413 64.6738 11.9513C64.4119 12.3673 64.0331 12.7109 63.5373 12.9943C63.0414 13.2776 62.4342 13.4886 61.7155 13.6333C61.5985 13.6514 61.4815 13.6635 61.3645 13.6816C61.2475 13.6997 61.1305 13.7117 61.0246 13.7298C61.0135 13.8564 61.0079 13.983 60.9968 14.1096C60.9856 14.2362 60.9856 14.3568 60.9856 14.4593C60.9856 14.9114 61.0692 15.2491 61.2363 15.4782C61.4035 15.7073 61.6932 15.7917 62.111 15.7314C62.4564 15.6831 62.7963 15.5445 63.1306 15.3274C63.4648 15.1044 63.7155 14.815 63.8827 14.4533C64.0052 14.5196 64.0944 14.604 64.139 14.7125C64.1891 14.821 64.2114 14.9597 64.2114 15.1225C64.2114 15.5324 64.0832 15.9122 63.8325 16.2619C63.5818 16.6176 63.2476 16.907 62.8241 17.1421C62.4174 17.3833 61.9606 17.54 61.4648 17.6124ZM61.0803 20.2831C60.7294 20.3374 60.4285 20.2892 60.1889 20.1384C59.9438 19.9877 59.8268 19.7345 59.8268 19.3788C59.8268 19.0111 59.9549 18.7096 60.2112 18.4745C60.4675 18.2394 60.7739 18.1007 61.1361 18.0464C61.4982 17.9922 61.7935 18.0464 62.0219 18.2032C62.2503 18.3599 62.3673 18.6132 62.3673 18.9749C62.3673 19.3547 62.2447 19.6501 61.994 19.8732C61.7489 20.0902 61.4425 20.2289 61.0803 20.2831ZM60.9745 8.37016L60.5789 7.70096L62.774 5.63307L63.2643 5.57278L65.0081 7.13425L64.3841 7.918L62.8743 7.24277L60.9745 8.37016ZM61.1082 13.0365C61.4146 12.9943 61.6987 12.9038 61.9495 12.7652C62.2002 12.6265 62.4174 12.4517 62.6069 12.2346C62.7907 12.0176 62.9356 11.7704 63.0303 11.4931C63.125 11.2158 63.1751 10.9143 63.1751 10.5827C63.1751 10.3175 63.1306 10.1185 63.047 9.97986C62.9634 9.8412 62.8241 9.78694 62.6291 9.81105C62.462 9.83517 62.3004 9.91957 62.1389 10.0763C61.9829 10.2331 61.838 10.4441 61.7099 10.7154C61.5818 10.9867 61.4648 11.3183 61.3645 11.7041C61.2642 12.108 61.1806 12.5481 61.1082 13.0365Z" fill="url(#paint10_linear)"/>
<path d="M70.7019 16.2664C70.2952 16.3266 69.9665 16.2543 69.7102 16.0553C69.4539 15.8564 69.3258 15.5067 69.3258 15.0124C69.3258 14.7893 69.3536 14.5059 69.4093 14.1623C69.4651 13.8186 69.5319 13.4569 69.6099 13.0711C69.6823 12.6852 69.7603 12.2994 69.8328 11.9135C69.9052 11.5277 69.972 11.166 70.0222 10.8344C70.0779 10.4968 70.1002 10.2194 70.1002 9.99637C70.1002 9.76124 70.0612 9.57435 69.9832 9.42966C69.9052 9.28496 69.7603 9.22468 69.5598 9.24879C69.2923 9.28496 69.0751 9.44171 68.8968 9.71904C68.7185 9.99637 68.5792 10.328 68.4678 10.7078C68.3564 11.0876 68.2728 11.4553 68.2115 11.805L67.4594 16.4291L65.0916 17.0501L66.4677 8.79663L68.4009 8.26609L68.2004 9.75521C68.4399 9.19453 68.7686 8.77251 69.1865 8.48313C69.6043 8.19375 70.0667 8.01891 70.5682 7.94656C71.142 7.86819 71.5933 7.95259 71.9164 8.18772C72.2451 8.42887 72.4067 8.85692 72.4067 9.48392C72.4067 9.74918 72.3788 10.0446 72.3287 10.3882C72.2785 10.7259 72.2117 11.0876 72.1393 11.4674C72.0668 11.8472 71.9888 12.215 71.922 12.5707C71.8496 12.9264 71.7883 13.258 71.7381 13.5654C71.6824 13.8729 71.6601 14.1261 71.6601 14.3251C71.6601 14.5361 71.7047 14.7049 71.7883 14.8375C71.8718 14.9641 72.0223 15.0244 72.234 15.0184C72.1393 15.3861 71.9387 15.6755 71.6434 15.8805C71.337 16.0855 71.025 16.2181 70.7019 16.2664Z" fill="url(#paint11_linear)"/>
<path d="M77.0252 15.3455C76.6352 15.3998 76.3065 15.3274 76.028 15.1285C75.7494 14.9295 75.6101 14.5979 75.6101 14.1337C75.6101 13.9348 75.6324 13.6695 75.677 13.3319C75.7215 13.0003 75.7717 12.6506 75.8274 12.2829C75.8831 11.9151 75.9444 11.5594 76.0057 11.2218C76.0669 10.8842 76.1115 10.6069 76.1394 10.3898L76.5349 8.129L75.716 8.23752L75.7717 7.77933C76.2675 7.53214 76.7634 7.21865 77.2592 6.84486C77.7551 6.47107 78.2342 6.04302 78.6799 5.5788L79.2593 5.50043L78.9529 7.12821L79.9836 6.98955L79.8666 7.67684L78.847 7.8155L78.0392 12.6325C78.0225 12.7772 78.0058 12.9099 77.9835 13.0365C77.9668 13.1631 77.9501 13.2897 77.9445 13.4103C77.9445 13.7479 78.0169 13.9649 78.1562 14.0493C78.2955 14.1337 78.5016 14.1217 78.7635 14.0131C78.6465 14.3266 78.496 14.5799 78.3122 14.7607C78.1283 14.9416 77.9222 15.0802 77.6993 15.1647C77.4821 15.2491 77.2536 15.3093 77.0252 15.3455Z" fill="url(#paint12_linear)"/>
<path d="M79.4153 14.9659L80.7635 6.88724L82.6967 6.36273L82.4962 7.82171C82.6912 7.32735 82.9586 6.93547 83.2984 6.63403C83.6383 6.33862 84.0394 6.15775 84.4962 6.09746C84.9976 6.03115 85.3821 6.12761 85.6383 6.38082C85.9002 6.64006 86.0283 7.0259 86.0283 7.55041C86.0283 8.14124 85.8723 8.65369 85.5659 9.08777C85.2595 9.52184 84.8584 9.77505 84.3625 9.84137C84.2232 9.85946 84.0784 9.85946 83.9391 9.84137C83.7998 9.82328 83.6884 9.76902 83.6104 9.67859C83.7608 9.4495 83.8834 9.16011 83.9725 8.81647C84.0672 8.47282 84.1118 8.17138 84.1118 7.91214C84.1118 7.73128 84.084 7.58659 84.0283 7.47807C83.9725 7.36955 83.8611 7.32132 83.7051 7.34543C83.5547 7.36352 83.4154 7.44189 83.2873 7.58056C83.1591 7.71922 83.0477 7.90009 82.9474 8.12315C82.8527 8.35225 82.7636 8.61752 82.68 8.92499C82.602 9.23246 82.5352 9.57007 82.4795 9.93783L81.8443 14.3509L79.4153 14.9659Z" fill="url(#paint13_linear)"/>
<path d="M87.9115 13.7538C87.4268 13.8261 87.0312 13.7598 86.7192 13.5669C86.4128 13.3679 86.1844 13.0665 86.0395 12.6565C85.8947 12.2465 85.8223 11.7522 85.8223 11.1674C85.8223 10.4258 85.9225 9.72649 86.1175 9.05729C86.3181 8.39412 86.5967 7.79727 86.9588 7.26673C87.3209 6.74222 87.7388 6.30814 88.2179 5.98259C88.6914 5.651 89.2151 5.45205 89.7778 5.37368C90.2291 5.31339 90.6915 5.34956 91.1651 5.48219L93.0593 4.96371L92.0787 10.8177C92.0676 10.9081 92.0565 11.0106 92.0397 11.1312C92.023 11.2518 92.0119 11.3543 92.0119 11.4447C92.0119 11.6195 92.0565 11.7763 92.1512 11.9029C92.2459 12.0295 92.3907 12.0838 92.5969 12.0657C92.5244 12.3129 92.413 12.5178 92.2514 12.6866C92.0899 12.8555 91.9116 12.9881 91.6999 13.0906C91.4938 13.187 91.2821 13.2534 91.0703 13.2835C90.7974 13.3257 90.5466 13.2895 90.3182 13.187C90.0898 13.0846 89.9338 12.8916 89.8558 12.6203C89.6274 12.9097 89.3488 13.1509 89.0201 13.3498C88.697 13.5669 88.3237 13.6935 87.9115 13.7538ZM88.6803 12.7108C88.9477 12.6746 89.1594 12.5359 89.321 12.3008C89.4826 12.0657 89.6163 11.7884 89.711 11.4688C89.8057 11.1493 89.8781 10.8479 89.9227 10.5524L90.5578 6.45887C90.4241 6.36843 90.2904 6.30814 90.1567 6.278C90.0174 6.24786 89.9004 6.24183 89.7945 6.25388C89.5383 6.29006 89.3154 6.43475 89.1204 6.68193C88.9254 6.93514 88.7583 7.2607 88.6246 7.6586C88.4853 8.05651 88.3795 8.48455 88.2959 8.94274C88.2123 9.40093 88.151 9.86515 88.1176 10.3233C88.0842 10.7876 88.0619 11.2036 88.0619 11.5773C88.0619 11.8848 88.1009 12.1561 88.1789 12.3973C88.2569 12.6505 88.424 12.753 88.6803 12.7108Z" fill="url(#paint14_linear)"/>
<path d="M98.9425 12.1438C98.5358 12.2041 98.2071 12.1378 97.9509 11.9449C97.6946 11.7519 97.5664 11.4203 97.5664 10.9441C97.5664 10.7331 97.5943 10.4618 97.65 10.1302C97.7057 9.80462 97.7726 9.45495 97.8506 9.08116C97.923 8.7134 98.001 8.33961 98.0734 7.97185C98.1458 7.60409 98.2127 7.25442 98.2628 6.93489C98.3186 6.61536 98.3408 6.34407 98.3408 6.13306C98.3408 5.90999 98.3018 5.72913 98.2238 5.59046C98.1458 5.4518 98.001 5.39754 97.8004 5.42165C97.533 5.45783 97.3157 5.60855 97.1374 5.87382C96.9592 6.13909 96.8199 6.45861 96.7085 6.82034C96.597 7.1881 96.5135 7.53778 96.4522 7.87539L95.7001 12.3186L93.3323 12.9276L94.7084 5.00567L96.6416 4.48719L96.441 5.91602C96.6806 5.37945 97.0093 4.96949 97.4272 4.69217C97.845 4.41484 98.3074 4.24 98.8088 4.17369C99.3827 4.09531 99.8339 4.17369 100.157 4.39675C100.486 4.62585 100.647 5.03581 100.647 5.63266C100.647 5.88587 100.619 6.17526 100.569 6.50082C100.519 6.82637 100.452 7.17002 100.38 7.53175C100.307 7.89348 100.229 8.24918 100.163 8.59282C100.09 8.93647 100.029 9.25599 99.9788 9.54538C99.9231 9.84079 99.9008 10.0819 99.9008 10.2749C99.9008 10.4798 99.9454 10.6426 100.029 10.7632C100.112 10.8838 100.263 10.9441 100.475 10.932C100.38 11.2817 100.179 11.559 99.8841 11.764C99.5832 11.975 99.2712 12.0956 98.9425 12.1438Z" fill="url(#paint15_linear)"/>
<path d="M106.726 11.0092C106.319 11.0695 105.99 11.0032 105.734 10.8163C105.478 10.6294 105.349 10.2978 105.349 9.82753C105.349 9.61653 105.377 9.35126 105.433 9.0257C105.489 8.70014 105.556 8.3565 105.634 7.98874C105.706 7.62098 105.784 7.25925 105.856 6.89149C105.929 6.52373 105.996 6.18612 106.046 5.86659C106.102 5.54706 106.124 5.28179 106.124 5.07078C106.124 4.84772 106.085 4.67288 106.007 4.53422C105.929 4.39555 105.784 4.3413 105.583 4.37144C105.316 4.40761 105.099 4.55833 104.92 4.8236C104.742 5.08887 104.603 5.40237 104.491 5.75807C104.38 6.1198 104.296 6.46947 104.235 6.80106L103.483 11.1901L101.115 11.7929L102.319 4.92609L104.397 4.51613C104.664 4.10617 104.987 3.78664 105.377 3.55755C105.767 3.32845 106.185 3.18376 106.636 3.12347C107.182 3.05112 107.622 3.12347 107.946 3.34654C108.274 3.5696 108.436 3.97956 108.436 4.57039C108.436 4.81757 108.408 5.10696 108.358 5.43251C108.308 5.75807 108.241 6.10171 108.168 6.45139C108.096 6.80709 108.018 7.15073 107.951 7.49438C107.879 7.83199 107.817 8.14549 107.767 8.43487C107.712 8.72426 107.689 8.96541 107.689 9.15833C107.689 9.35729 107.734 9.52006 107.817 9.64064C107.901 9.76122 108.051 9.81548 108.263 9.80342C108.168 10.1531 107.968 10.4244 107.673 10.6294C107.361 10.8404 107.049 10.961 106.726 11.0092ZM104.33 5.02255L102.291 5.0949C102.369 4.67891 102.441 4.25689 102.508 3.82282C102.575 3.38874 102.631 2.96672 102.675 2.5447C102.72 2.12268 102.748 1.74287 102.77 1.40525C102.781 1.27865 102.781 1.1641 102.776 1.05558C102.77 0.95309 102.764 0.850599 102.753 0.754138C102.954 0.603417 103.16 0.488869 103.366 0.410494C103.572 0.33212 103.767 0.27786 103.957 0.253745C104.285 0.211543 104.558 0.265802 104.792 0.422552C105.021 0.573273 105.132 0.874715 105.121 1.31482C105.121 1.46554 105.11 1.64641 105.082 1.85139C105.054 2.05637 105.015 2.28546 104.965 2.52662C104.915 2.7738 104.854 3.03304 104.787 3.30434C104.72 3.57563 104.647 3.85899 104.575 4.1544C104.497 4.44981 104.419 4.7392 104.33 5.02255Z" fill="url(#paint16_linear)"/>
<defs>
<linearGradient id="paint0_linear" x1="103.045" y1="65.354" x2="75.6329" y2="51.2145" gradientUnits="userSpaceOnUse">
<stop stop-color="#71A665"/>
<stop offset="1" stop-color="#8AC640"/>
</linearGradient>
<linearGradient id="paint1_linear" x1="21.8195" y1="74.1894" x2="-12.4753" y2="50.0658" gradientUnits="userSpaceOnUse">
<stop stop-color="#71A665"/>
<stop offset="1" stop-color="#8AC640"/>
</linearGradient>
<linearGradient id="paint2_linear" x1="44.0897" y1="67.7051" x2="18.2437" y2="46.4714" gradientUnits="userSpaceOnUse">
<stop stop-color="#71A665"/>
<stop offset="1" stop-color="#8AC640"/>
</linearGradient>
<linearGradient id="paint3_linear" x1="82.4661" y1="66.2536" x2="53.6717" y2="46.0336" gradientUnits="userSpaceOnUse">
<stop stop-color="#71A665"/>
<stop offset="1" stop-color="#8AC640"/>
</linearGradient>
<linearGradient id="paint4_linear" x1="126.211" y1="64.5574" x2="94.9405" y2="45.7788" gradientUnits="userSpaceOnUse">
<stop stop-color="#71A665"/>
<stop offset="1" stop-color="#8AC640"/>
</linearGradient>
<linearGradient id="paint5_linear" x1="61.5602" y1="66.7467" x2="35.6476" y2="50.7275" gradientUnits="userSpaceOnUse">
<stop stop-color="#71A665"/>
<stop offset="1" stop-color="#8AC640"/>
</linearGradient>
<linearGradient id="paint6_linear" x1="38.7439" y1="21.2814" x2="30.5703" y2="11.6536" gradientUnits="userSpaceOnUse">
<stop stop-color="#71A665"/>
<stop offset="1" stop-color="#8AC640"/>
</linearGradient>
<linearGradient id="paint7_linear" x1="43.8131" y1="20.6796" x2="37.6384" y2="13.9225" gradientUnits="userSpaceOnUse">
<stop stop-color="#71A665"/>
<stop offset="1" stop-color="#8AC640"/>
</linearGradient>
<linearGradient id="paint8_linear" x1="50.8653" y1="19.5071" x2="44.8237" y2="12.2503" gradientUnits="userSpaceOnUse">
<stop stop-color="#71A665"/>
<stop offset="1" stop-color="#8AC640"/>
</linearGradient>
<linearGradient id="paint9_linear" x1="57.9869" y1="21.1443" x2="50.2155" y2="14.3858" gradientUnits="userSpaceOnUse">
<stop stop-color="#71A665"/>
<stop offset="1" stop-color="#8AC640"/>
</linearGradient>
<linearGradient id="paint10_linear" x1="64.2628" y1="19.8136" x2="55.2889" y2="13.8218" gradientUnits="userSpaceOnUse">
<stop stop-color="#71A665"/>
<stop offset="1" stop-color="#8AC640"/>
</linearGradient>
<linearGradient id="paint11_linear" x1="71.4801" y1="16.7457" x2="65.6002" y2="9.41898" gradientUnits="userSpaceOnUse">
<stop stop-color="#71A665"/>
<stop offset="1" stop-color="#8AC640"/>
</linearGradient>
<linearGradient id="paint12_linear" x1="79.4296" y1="15.0342" x2="73.3491" y2="10.8399" gradientUnits="userSpaceOnUse">
<stop stop-color="#71A665"/>
<stop offset="1" stop-color="#8AC640"/>
</linearGradient>
<linearGradient id="paint13_linear" x1="85.1907" y1="14.6696" x2="79.3903" y2="7.95687" gradientUnits="userSpaceOnUse">
<stop stop-color="#71A665"/>
<stop offset="1" stop-color="#8AC640"/>
</linearGradient>
<linearGradient id="paint14_linear" x1="92.1426" y1="13.4883" x2="86.4957" y2="6.27967" gradientUnits="userSpaceOnUse">
<stop stop-color="#71A665"/>
<stop offset="1" stop-color="#8AC640"/>
</linearGradient>
<linearGradient id="paint15_linear" x1="99.7208" y1="12.6348" x2="94.1167" y2="5.37474" gradientUnits="userSpaceOnUse">
<stop stop-color="#71A665"/>
<stop offset="1" stop-color="#8AC640"/>
</linearGradient>
<linearGradient id="paint16_linear" x1="107.509" y1="11.4078" x2="99.8899" y2="3.8982" gradientUnits="userSpaceOnUse">
<stop stop-color="#71A665"/>
<stop offset="1" stop-color="#8AC640"/>
</linearGradient>
</defs>
</svg>
